<?xml version="1.0" encoding="UTF-8"?>
<svg xmlns="http://www.w3.org/2000/svg" xmlns:xlink="http://www.w3.org/1999/xlink" version="1.1" viewBox="0 0 3710 3710">
  <defs>
    <linearGradient id="linear-gradient" x1="3396.657" y1="3572.96" x2="1368.266" y2="1383.586" gradientUnits="userSpaceOnUse">
      <stop offset="0" stop-color="#b37cff"/>
      <stop offset="1" stop-color="#f895e7"/>
    </linearGradient>
    <linearGradient id="linear-gradient-2" x1="5243.746" y1="-5759.025" x2="6531.279" y2="-5759.025" gradientTransform="translate(-3596.544 -3291.94) rotate(89.832) scale(.991 1.069)" xlink:href="#linear-gradient"/>
    <linearGradient id="linear-gradient-3" x1="2733.728" y1="348.236" x2="343.891" y2="3689.195" gradientUnits="userSpaceOnUse">
      <stop offset="0" stop-color="#cb2323"/>
      <stop offset="1" stop-color="#000"/>
    </linearGradient>
    <linearGradient id="linear-gradient-4" x1="2450.443" y1="1979.15" x2="2402.989" y2="3280.75" gradientUnits="userSpaceOnUse">
      <stop offset="0" stop-color="#2b3582"/>
      <stop offset="1" stop-color="#150e42"/>
    </linearGradient>
    <linearGradient id="linear-gradient-5" x1="2680.765" y1="1987.547" x2="2633.311" y2="3289.146" xlink:href="#linear-gradient-4"/>
    <linearGradient id="linear-gradient-6" x1="3029.439" y1="2000.26" x2="2981.985" y2="3301.865" xlink:href="#linear-gradient-4"/>
    <linearGradient id="linear-gradient-7" x1="2760.978" y1="1990.472" x2="2713.523" y2="3292.077" xlink:href="#linear-gradient-4"/>
    <linearGradient id="linear-gradient-8" x1="2617.739" y1="1984.051" x2="2569.969" y2="3294.279" gradientTransform="translate(5222.228 4331.513) rotate(180)" xlink:href="#linear-gradient-4"/>
    <linearGradient id="linear-gradient-9" x1="2731.019" y1="1989.378" x2="2683.564" y2="3290.986" xlink:href="#linear-gradient-4"/>
    <linearGradient id="linear-gradient-10" x1="2820.685" y1="1992.647" x2="2773.23" y2="3294.252" xlink:href="#linear-gradient-4"/>
    <linearGradient id="linear-gradient-11" x1="2907.715" y1="1995.821" x2="2860.261" y2="3297.424" xlink:href="#linear-gradient-4"/>
    <linearGradient id="linear-gradient-12" x1="2998.64" y1="1999.131" x2="2951.185" y2="3300.739" xlink:href="#linear-gradient-4"/>
    <linearGradient id="linear-gradient-13" x1="3086.781" y1="2002.345" x2="3039.326" y2="3303.953" xlink:href="#linear-gradient-4"/>
    <linearGradient id="linear-gradient-14" x1="2724.051" y1="1824.512" x2="2382.455" y2="2320.75" gradientTransform="translate(87.546)" gradientUnits="userSpaceOnUse">
      <stop offset="0" stop-color="#53d8ff"/>
      <stop offset="1" stop-color="#3840f7"/>
    </linearGradient>
    <linearGradient id="linear-gradient-15" x1="1415.372" y1="2066.91" x2="1469.282" y2="2066.91" gradientTransform="translate(4103.921) rotate(-180) scale(1 -1)" gradientUnits="userSpaceOnUse">
      <stop offset="0" stop-color="#f9b776"/>
      <stop offset="1" stop-color="#f47960"/>
    </linearGradient>
    <linearGradient id="linear-gradient-16" x1="2899.719" y1="1945.436" x2="2558.122" y2="2441.676" xlink:href="#linear-gradient-14"/>
    <linearGradient id="linear-gradient-17" x1="1221.078" y1="2064.145" x2="1267.625" y2="2064.145" xlink:href="#linear-gradient-15"/>
    <linearGradient id="linear-gradient-18" x1="3111.556" y1="188.713" x2="2621.984" y2="1281.232" gradientTransform="translate(5678.539 1645.603) rotate(-176.978)" xlink:href="#linear-gradient-14"/>
    <linearGradient id="linear-gradient-19" x1="3191.41" y1="640.227" x2="2181.283" y2="2106.542" gradientUnits="userSpaceOnUse">
      <stop offset="0" stop-color="#fdf53f"/>
      <stop offset="1" stop-color="#d93c65"/>
    </linearGradient>
    <linearGradient id="linear-gradient-20" x1="9209.561" y1="513.571" x2="8946.837" y2="465.721" gradientTransform="translate(11610.311 1699.477) rotate(-170.595) scale(.995 -1.13) skewX(-2.481)" xlink:href="#linear-gradient-4"/>
    <linearGradient id="linear-gradient-21" x1="8927.346" y1="634.008" x2="8959.036" y2="543.634" gradientTransform="translate(11666.642 1438.602) rotate(-172.368) scale(1 -1)" xlink:href="#linear-gradient-15"/>
    <linearGradient id="linear-gradient-22" x1="9017.603" y1="447.695" x2="8878.548" y2="554.093" gradientTransform="translate(11666.642 1438.602) rotate(-172.368) scale(1 -1)" xlink:href="#linear-gradient-15"/>
    <linearGradient id="linear-gradient-23" x1="9000.355" y1="425.151" x2="8861.3" y2="531.55" gradientTransform="translate(11666.642 1438.602) rotate(-172.368) scale(1 -1)" xlink:href="#linear-gradient-15"/>
    <linearGradient id="linear-gradient-24" x1="2554.027" y1="839.428" x2="2771.47" y2="2077.65" xlink:href="#linear-gradient-14"/>
    <linearGradient id="linear-gradient-25" x1="2638.075" y1="677.684" x2="2178.897" y2="1001.481" xlink:href="#linear-gradient-14"/>
    <linearGradient id="linear-gradient-26" x1="9201.831" y1="245.783" x2="7748.06" y2="1693.806" gradientTransform="translate(11666.642 1438.602) rotate(-172.368) scale(1 -1)" gradientUnits="userSpaceOnUse">
      <stop offset="0" stop-color="#9cfffb"/>
      <stop offset="1" stop-color="#9bfffa"/>
    </linearGradient>
    <linearGradient id="linear-gradient-27" x1="3241.2" y1="1748.21" x2="2344.552" y2="941.572" gradientTransform="translate(87.546)" xlink:href="#linear-gradient-4"/>
    <linearGradient id="linear-gradient-28" x1="2312.32" y1="-697.949" x2="1796.116" y2="-589.621" gradientTransform="translate(4725.205 291.555) rotate(-179.999)" xlink:href="#linear-gradient-14"/>
    <linearGradient id="linear-gradient-29" x1="-759.086" y1="-10696.765" x2="-1655.755" y2="-11503.421" gradientTransform="translate(7544.954 10011.045) rotate(-124.237) scale(1 -1)" gradientUnits="userSpaceOnUse">
      <stop offset="0" stop-color="#cb236d"/>
      <stop offset="1" stop-color="#4c246d"/>
    </linearGradient>
    <linearGradient id="linear-gradient-30" x1="2037.394" y1="-562.775" x2="1923.98" y2="-472.794" gradientTransform="translate(757.905 143.196) rotate(43.359)" xlink:href="#linear-gradient-19"/>
    <linearGradient id="linear-gradient-31" x1="7568.624" y1="2487.85" x2="7413.093" y2="2264.552" gradientTransform="translate(9435.061 5172.617) rotate(-130.571) scale(1 -1)" xlink:href="#linear-gradient-26"/>
    <linearGradient id="linear-gradient-32" x1="10162.926" y1="-944.953" x2="10095.769" y2="-846.764" gradientTransform="translate(-7546.81 194.171) scale(1 -1)" xlink:href="#linear-gradient-14"/>
    <linearGradient id="linear-gradient-33" x1="9964.904" y1="-679.002" x2="8940.997" y2="-655.128" gradientTransform="translate(9752.351 6992.589) rotate(-144.997) scale(1 -1)" xlink:href="#linear-gradient-26"/>
    <linearGradient id="linear-gradient-34" x1="2302.472" y1="-744.876" x2="1786.269" y2="-636.548" gradientTransform="translate(98.385 232.778) rotate(35.003)" xlink:href="#linear-gradient-14"/>
    <linearGradient id="linear-gradient-35" x1="3122.209" y1="217.787" x2="2648.311" y2="1275.328" gradientTransform="matrix(1,0,0,1,0,0)" xlink:href="#linear-gradient-14"/>
    <linearGradient id="linear-gradient-36" x1="3253.617" y1="276.672" x2="2779.72" y2="1334.21" gradientTransform="matrix(1,0,0,1,0,0)" xlink:href="#linear-gradient-14"/>
    <linearGradient id="linear-gradient-37" x1="2705.165" y1="1013.105" x2="2242.09" y2="1241.622" xlink:href="#linear-gradient-14"/>
    <linearGradient id="linear-gradient-38" x1="2736.729" y1="1077.068" x2="2273.654" y2="1305.585" xlink:href="#linear-gradient-14"/>
    <linearGradient id="linear-gradient-39" x1="633.404" y1="1887.054" x2="1387.297" y2="1612.911" gradientTransform="matrix(1,0,0,1,0,0)" xlink:href="#linear-gradient-14"/>
    <linearGradient id="linear-gradient-40" x1="1226.576" y1="1744.585" x2="1913.911" y2="1299.643" xlink:href="#linear-gradient-19"/>
    <linearGradient id="linear-gradient-41" x1="1118.392" y1="1318.853" x2="775.714" y2="3554.167" gradientTransform="matrix(1,0,0,1,0,0)" xlink:href="#linear-gradient-14"/>
    <linearGradient id="linear-gradient-42" x1="1890.427" y1="1414.747" x2="1010.007" y2="2179.183" gradientTransform="matrix(1,0,0,1,0,0)" xlink:href="#linear-gradient-14"/>
    <linearGradient id="linear-gradient-43" x1="1339.69" y1="1567.175" x2="944.293" y2="2595.208" gradientTransform="matrix(1,0,0,1,0,0)" xlink:href="#linear-gradient-14"/>
    <linearGradient id="linear-gradient-44" x1="1177.722" y1="1333.209" x2="154.958" y2="2883.169" gradientTransform="matrix(1,0,0,1,0,0)" xlink:href="#linear-gradient-14"/>
    <linearGradient id="linear-gradient-45" x1="4155.952" y1="1794.061" x2="3863.294" y2="1626.546" gradientTransform="translate(3045.699 5701.878) rotate(-90.296) scale(1 -1)" xlink:href="#linear-gradient-19"/>
    <linearGradient id="linear-gradient-46" x1="781.675" y1="3379.363" x2="1822.119" y2="1965.278" xlink:href="#linear-gradient-19"/>
    <linearGradient id="linear-gradient-47" x1="-708.628" y1="2342.513" x2="-290.956" y2="2342.513" gradientTransform="translate(1734.366)" gradientUnits="userSpaceOnUse">
      <stop offset="0" stop-color="#ffc444"/>
      <stop offset=".996" stop-color="#f36f56"/>
    </linearGradient>
    <linearGradient id="linear-gradient-48" x1="-624.585" y1="2285.85" x2="-369.057" y2="2285.85" xlink:href="#linear-gradient-47"/>
    <linearGradient id="linear-gradient-49" x1="1454.469" y1="1895.774" x2="1178.536" y2="2296.259" gradientUnits="userSpaceOnUse">
      <stop offset="0" stop-color="#a737d5"/>
      <stop offset="1" stop-color="#ef497a"/>
    </linearGradient>
    <linearGradient id="linear-gradient-50" x1="1144.918" y1="2486.96" x2="1351.867" y2="1871.86" gradientTransform="translate(1931.716 -222.611) rotate(45)" xlink:href="#linear-gradient-19"/>
    <linearGradient id="linear-gradient-51" x1="1225.129" y1="2220.482" x2="1244.018" y2="2220.482" gradientTransform="translate(1931.716 -222.611) rotate(45)" xlink:href="#linear-gradient-49"/>
    <linearGradient id="linear-gradient-52" x1="1163.381" y1="2556.34" x2="1406.739" y2="1939.322" xlink:href="#linear-gradient-19"/>
    <linearGradient id="linear-gradient-53" x1="1211.704" y1="3309.72" x2="1412.632" y2="2017.27" xlink:href="#linear-gradient-19"/>
  </defs>
  <!-- Generator: Adobe Illustrator 28.6.0, SVG Export Plug-In . SVG Version: 1.2.0 Build 709)  -->
  <g>
    <g id="Illustration">
      <path d="M3113.987,2325.318c-278.716,651.465-1014.435,931.285-1590.882,883.575-157.394-13.026-474.073-39.237-721.339-273.068-474.857-449.058-401.725-1387.714,52.85-1940.343,58.54-71.167,463.744-547.979,1095.178-541.597,462.302,4.673,786.787,265.821,826.243,298.355,49.844,41.099,159.779,138.764,258.857,293.703,232.799,364.053,253.263,872.274,79.093,1279.375Z" display="none" fill="url(#linear-gradient)" opacity=".3"/>
      <g display="none">
        <path d="M3218.948,1890.118c3.912-5.912,13.733-2.876,12.949,4.021-12.525,110.085-30.562,534.12-427.896,835.451-363.542,275.703-588.156,420.176-836.402,437.319-24.563,1.696-47.975-7.524-45.575-30.513,14.228-136.259,75.592-515.869,324.838-675.307,297.851-190.529,785.419-288.838,972.086-570.971Z" fill="url(#linear-gradient-2)"/>
        <path d="M3013.827,2213.897s-144.729,358.682-1049.929,924.364c0,0,877.261-613.183,1049.929-924.364Z" fill="#fff" opacity=".5"/>
      </g>
      <g>
        <path d="M836.397,866.037c16.393-15.35,38.554-22.983,60.928-20.971,239.311,21.522,685.799-93.751,977.608-392.324,20.263-20.733,57.195-9.015,80.423,8.341,324.53,242.551,862.479,292.781,1049.225,303.05,38.627,2.126,69.97,32.091,73.96,70.575,169.829,1640.257-898.13,2234.628-1119.627,2339.544-24.212,11.471-52.717,9.805-75.462-4.359C779.524,2482.275,826.746,1588.045,811.477,925.464c-.516-22.455,8.527-44.074,24.92-59.428Z" fill="url(#linear-gradient-3)"/>
        <path d="M1929.046,3051.364c-4.232,0-8.458-1.187-12.137-3.538-422.503-270.086-697.85-592.91-841.777-986.916-128.588-352.037-134.889-710.763-140.447-1027.258-.248-14.164-.498-28.247-.754-42.232-.112-6.031,2.153-11.719,6.375-16.019,4.266-4.345,9.989-6.735,16.113-6.735h.006c139.364,0,304.117-32.361,464.132-91.121,183.259-67.294,350.07-165.537,482.397-284.11,7.591-6.803,18.833-7.61,27.332-1.975,317.735,210.827,770.682,272.197,1012.4,290.015,10.997.807,19.68,9.387,20.644,20.396,56.015,639.062-76.859,1179.393-394.931,1605.984-237.515,318.547-519.114,484.492-629.161,541.053h.002c-3.194,1.641-6.696,2.455-10.195,2.455ZM956.635,971.91c-5.464,0-10.365,2.049-14.015,5.765-3.607,3.674-5.542,8.535-5.448,13.687.256,13.986.506,28.068.754,42.232,5.555,316.241,11.85,674.676,140.252,1026.201,143.673,393.316,418.597,715.611,840.477,985.295,5.749,3.677,13.068,4.034,19.099.934h.002c109.844-56.458,390.932-222.104,628.042-540.107,317.582-425.937,450.243-965.518,394.298-1603.76-.825-9.42-8.248-16.755-17.648-17.445-242.035-17.841-695.607-79.315-1013.956-290.547-7.27-4.828-16.881-4.134-23.373,1.689-132.63,118.843-299.803,217.302-483.445,284.739-160.363,58.886-325.515,91.316-465.033,91.316h-.006Z" fill="#fff"/>
      </g>
      <g>
        <path d="M2425,3194.15c4.701,0,8.51-3.81,8.51-8.51v-1017.25c0-4.701-3.81-8.51-8.51-8.51s-8.51,3.81-8.51,8.51v1017.25c0,4.701,3.81,8.51,8.51,8.51Z" fill="url(#linear-gradient-4)"/>
        <path d="M2655.628,3194.15c4.701,0,8.51-3.81,8.51-8.51v-1017.25c0-4.701-3.81-8.51-8.51-8.51s-8.51,3.81-8.51,8.51v1017.25c0,4.701,3.809,8.51,8.51,8.51Z" fill="url(#linear-gradient-5)"/>
        <path d="M3222.252,3200.602c1.112,0,2.239-.22,3.326-.681,4.325-1.839,6.341-6.835,4.503-11.163l-435.2-1023.699c-1.839-4.325-6.844-6.336-11.162-4.501-4.325,1.838-6.342,6.835-4.503,11.163l435.2,1023.699c1.376,3.238,4.526,5.183,7.836,5.183Z" fill="url(#linear-gradient-6)"/>
        <path d="M2953.433,3200.602c1.112,0,2.239-.22,3.326-.681,4.325-1.839,6.341-6.835,4.503-11.163l-435.2-1023.699c-1.84-4.325-6.842-6.336-11.162-4.501-4.325,1.838-6.342,6.835-4.503,11.163l435.2,1023.699c1.376,3.238,4.526,5.183,7.836,5.183Z" fill="url(#linear-gradient-7)"/>
        <rect x="2399.792" y="2153.762" width="422.643" height="23.99" rx="2.747" ry="2.747" transform="translate(5222.228 4331.513) rotate(-180)" fill="url(#linear-gradient-8)"/>
        <path d="M2583.978,2333.431h269.614c4.701,0,8.51-3.81,8.51-8.51s-3.81-8.51-8.51-8.51h-269.614c-4.701,0-8.51,3.81-8.51,8.51s3.81,8.51,8.51,8.51Z" fill="url(#linear-gradient-9)"/>
        <rect x="2666.705" y="2510.018" width="269.614" height="17.021" fill="url(#linear-gradient-10)"/>
        <rect x="2746.792" y="2703.626" width="269.615" height="17.021" fill="url(#linear-gradient-11)"/>
        <path d="M2830.779,2914.254h269.614c4.701,0,8.51-3.81,8.51-8.51s-3.81-8.51-8.51-8.51h-269.614c-4.701,0-8.51,3.81-8.51,8.51s3.81,8.51,8.51,8.51Z" fill="url(#linear-gradient-12)"/>
        <path d="M2911.978,3107.866h269.614c4.701,0,8.51-3.81,8.51-8.51s-3.81-8.51-8.51-8.51h-269.614c-4.701,0-8.51,3.809-8.51,8.51s3.81,8.51,8.51,8.51Z" fill="url(#linear-gradient-13)"/>
      </g>
      <g>
        <path d="M2683.4,2067.057s6.285,35.584,9.367,70.807c1.205,13.767-9.408,25.72-23.216,26.295-46.907,1.954-147.246,5.752-183.25,4.146-5.412-.241-8.951-5.783-6.948-10.817h0c1.678-4.218,4.916-7.628,9.04-9.524l165.74-76.174,29.266-4.733Z" fill="url(#linear-gradient-14)"/>
        <path d="M2688.549,2046.149l-5.05,42.563s-29.033,13.516-48.86-1.704l12.024-47.432,41.886,6.572Z" fill="url(#linear-gradient-15)"/>
        <path d="M2874.056,2085.62s10.006,17.964,19.691,65.699c1.75,8.62-4.273,16.871-13.028,17.732-15.488,1.522-39.333,3.481-58.434,3.35-8.805-.06-15.677-7.728-14.615-16.469,2.115-17.423,8.707-46.009,29.069-68.289l37.317-2.022Z" fill="url(#linear-gradient-16)"/>
        <path d="M2882.844,2030.875l-11.8,64.366s-11.666,8.678-34.747,2.387l5.633-69.254,40.915,2.5Z" fill="url(#linear-gradient-17)"/>
        <path d="M2755.174,712.396h211.598v71.026h-205.328c-3.461,0-6.27-2.81-6.27-6.27v-64.756h0Z" transform="translate(5757.396 1343.954) rotate(176.978)" fill="url(#linear-gradient-18)"/>
        <path d="M2789.613,1302.315l281.107-14.84c13.37-.706,23.732-12.222,23.026-25.592l-24.091-456.335c-1.135-21.499-19.653-38.16-41.152-37.025l-266.327,14.06c-6.422.339-11.398,5.87-11.059,12.292l26.205,496.382c.339,6.422,5.87,11.398,12.292,11.059Z" fill="url(#linear-gradient-19)"/>
        <ellipse cx="2709.206" cy="769.53" rx="74.553" ry="22.271" transform="translate(-8.071 29.004) rotate(-.612)" fill="url(#linear-gradient-20)"/>
        <path d="M2737.433,739.306l30.326,85.958c1.85,5.244.309,11.076-3.922,14.684-11.438,9.752-37.356,24.609-76.516,6.228-4.317-2.026-7.031-6.424-7.09-11.193l-.917-74.499,58.118-21.177Z" fill="url(#linear-gradient-21)"/>
        <g>
          <path d="M2681.425,636.708s-31.526,52.15-37.038,81c-5.513,28.85-14.302,46.872,18.522,57.227,32.825,10.355,63.38-2.595,82.597-29.494,0,0,30.008-41.396,27.065-60.389-2.944-18.993-91.147-48.344-91.147-48.344Z" fill="url(#linear-gradient-22)"/>
          <path d="M2735.054,728.259s13.936-34.144,28.468-22.101c14.532,12.043-13.54,38.535-26.468,38.15l-2-16.05Z" fill="url(#linear-gradient-23)"/>
        </g>
        <path d="M2941.412,1242.965c-12.736-44.739-39.107-107.293-51.931-152.001-5.046-17.593-11.898-34.692-15.819-52.602-4.522-20.654.459-37.717,4.741-58.099,3.632-17.286,7.277-34.689,7.704-52.346,1.034-42.756-21.555-103.84-66.692-117.085-26.248-7.701-54.044-7.167-80.949-3.846-13.483,1.664-26.676,1.403-40.043,4.155-7.804,1.606-15.53,3.59-23.143,5.941-6.939,2.143-15.215,4.11-21.428,7.928-.28.172-.575.377-.671.691-.113.369.086.754.275,1.089,4.617,8.175,9.209,15.313,4.498,24.651-2.266,4.493-6.936,6.898-10.303,10.423-3.704,3.879-6.313,8.8-8.27,13.753-.916,2.317-1.714,4.682-2.408,7.066-6.934,23.82-7.871,49.189-6.355,73.786,2.332,37.817,13.188,74.525,24.067,110.818,9.916,33.081,38.91,103.108,43.201,137.463,2.326,18.626-9.675,170.001-9.543,170.114-2.232,190.192-13.26,523.424-53.704,699.225-.948,4.122-6.957,12.21-4.883,15.756,5.042,8.624,42.169,6.203,63.105,6.933,6.484.226,9.966-7.384,11.795-13.837,14.959-52.776,74.799-364.305,95.356-617.048,23.275,198.68,26.699,564.338,28.842,621.445.199,5.287,3.619,9.871,8.487,11.347,14.13,4.282,28.462,3.053,37.168,1.547,5.125-.887,9.206-4.93,10.401-10.209,16.389-72.455,67.533-808.067,56.501-847.058Z" fill="url(#linear-gradient-24)"/>
        <g opacity=".42">
          <path d="M2644.655,629.769c-14.647,50.397-17.662,93.708-12.381,132.677,20.419,26.924,26.422,20.794,63.156,32.376,11.112,3.504,28.181-6.527,31.965-23.356l18.66-82.999-101.4-58.698Z" fill="url(#linear-gradient-25)"/>
          <path d="M2700.166,798.753c-1.994,0-3.916-.279-5.709-.843-9.339-2.948-16.8-4.767-22.794-6.226-17.922-4.371-26.102-6.365-41.966-27.284l-.514-.678-.113-.843c-5.665-41.794-1.582-85.632,12.479-134.012l1.153-3.969,107.031,61.96-19.182,85.317c-2.132,9.485-8.241,17.737-16.758,22.64-4.506,2.591-9.243,3.937-13.627,3.937ZM2635.368,761.167c14.117,18.447,20.667,20.046,37.827,24.229,6.088,1.485,13.663,3.33,23.208,6.339,3.953,1.252,9.248.302,14.162-2.529,6.852-3.94,11.962-10.84,13.672-18.451l18.141-80.68-95.752-55.426c-12.795,45.598-16.479,87.032-11.258,126.518Z" fill="#225399"/>
        </g>
        <path d="M2688.922,788.832c-22.265-.848-42.748-9.683-58.925-24.673,2.333,3.828,4.588,9.371,5.7,13.888,1.904,7.733,4.087,15.398,6.588,22.959,3.945,11.925,9.533,22.935,14.169,34.532,5.341,13.335-1.383,18.568-11.197,26.765,40.741,16.184,88.009,12.297,127.3-6.49,16.01-7.655,30.484-19.664,38.107-35.688-16.29-7.199-15.47-22.531-14.483-37.661,1.978-30.34,14.91-58.602,20.243-88.328,2.625-14.632,5.197-29.423,4.47-44.27-1.811-37.011-28.88-58.614-60.69-71.751-22.627-9.345-49.246-8.486-71.224,2.298-16.53,8.111-34.549,23.201-43.547,39.557-3.099,5.633-6.606,10.176-7.207,16.786.086-.945,41.788,13.072,45.344,14.546,15.042,6.234,29.579,14.013,42.007,24.635,11.03,9.428,6.191,21.363,5.194,34.214-1.597,20.571-6.549,41.131-11.578,61.062-1.657,6.568-2.878,12.103-9.181,15.242-6.558,3.266-13.98,2.649-21.091,2.378Z" fill="url(#linear-gradient-26)"/>
        <path d="M3039.282,1679.251c50.711.003,90.367-33.758,107.012-93.578,10.349-37.196,8.413-78.742-5.601-120.145-10.508-31.041-20.479-59.216-36.155-89.696-2.952-5.738-6.24-11.319-9.42-16.718-6.839-11.603-13.297-22.563-15.694-33.55-1.979-9.081-3.438-18.211-4.978-27.876-2.16-13.525-1.99-17.801-5.793-31.795l-28.674,19.202c3.357,12.34.828,4.345,2.944,17.622,1.546,9.678,3.142,19.686,5.318,29.649,3.485,15.983,11.564,29.693,19.376,42.951,3.089,5.24,6.003,10.19,8.538,15.115,14.672,28.523,24.216,55.519,34.303,85.329,11.954,35.31,13.712,70.358,5.084,101.356-7.231,25.995-31.479,84.556-100.307,67.021-19.678-5.014-39.78-15.029-63.257-31.518-24.88-17.47-44.165-38.505-62.537-68.204-30.946-50.027-44.116-99.051-39.147-145.707,1.612-15.111,4.523-29.972,7.602-45.705,4.404-22.48,8.955-45.726,9.364-69.688.655-38.355-11.125-72.822-32.318-94.559-24.672-25.303-105.727-40.456-137.054-34.563l5.916,31.367c25.647-4.845,94.506,11.348,108.283,25.477,15.065,15.454,23.761,42.27,23.26,71.734-.362,21.14-4.448,42.005-8.774,64.098-3.077,15.713-6.259,31.961-8.017,48.458-5.738,53.872,8.977,109.681,43.742,165.88,20.47,33.097,43.137,57.734,71.337,77.534,26.744,18.783,50.172,30.327,73.721,36.328,11.022,2.808,21.704,4.182,31.928,4.183Z" fill="url(#linear-gradient-27)"/>
        <rect x="2186.014" y="984.434" width="433.029" height="14.363" transform="translate(3801.739 3181.97) rotate(-144.998)" fill="url(#linear-gradient-28)"/>
        <path d="M2559.688,1123.166c38.862,37.153,75.919,57.772,145.882,62.394l13.59-32.004c-56.731-8.868-101.077-25.113-128.84-51.237-2.402-3.529-11.883-10.172-15.412-7.771l-13.178,17.879c-3.529,2.402-4.443,7.21-2.041,10.739Z" fill="url(#linear-gradient-29)"/>
        <g>
          <path d="M2679.998,1165.175c-.061-.509-.155-1.019-.285-1.529-1.153-4.531-4.8-8.076-8.889-10.344-7.196-3.992-15.57-4.592-22.912-8.479-15.273-8.085-16.014-28.625-30.525-37.937-8.619-5.531-16.511-13.289-18.238-23.773-.036-.22-.077-.456-.231-.618-.231-.241-.618-.223-.947-.159-1.664.325-3.123,1.357-4.257,2.618-6.423,7.138.053,13.609,4.688,19.525,3.922,5.006,8.138,12.242,4.471,18.611-2.102,3.649-5.225,6.775-8.348,9.563-3.132,2.797-6.431,5.564-10.274,7.334-1.548.712-2.343.983-3.914.559-.628-.169-4.579-2.871-4.684-2.805-2.422,1.523,1.763,12.117,2.684,14.359,1.074,2.616,2.554,5.084,4.517,7.131,6.914,7.208,16.769,12.072,26.003,15.513,10.244,3.818,22.487,4.656,33.3,6.869,8.19,1.676,16.805,3.335,24.783.836,7.476-2.342,13.967-9.691,13.058-17.274Z" fill="url(#linear-gradient-30)"/>
          <path d="M2872.09,999.776c3.005-13.002,5.82-26.048,8.445-39.132,3.177-15.837,6.06-32.348,1.998-47.981-10.216-39.318-61.125-59.167-89.392-26.046-13.567,15.896-18.397,37.461-20.087,58.291-3.405,41.973,4.799,89.912-21.712,125.793-26.54,35.921-71.438,55.897-112.935,68.532-4.739,15.875-5.35,32.261,2.91,49.745,3.482,7.37,88.764-17.112,98.708-20.293,25.174-8.053,50.004-18.782,71.31-34.641,26.229-19.524,36.506-42.323,45.061-72.851,5.702-20.348,10.935-40.828,15.693-61.417Z" fill="url(#linear-gradient-31)"/>
        </g>
        <path d="M2585.929,1105.687h19.883v8.341c0,.681-.553,1.234-1.234,1.234h-17.617c-.569,0-1.031-.462-1.031-1.031v-8.544h0Z" transform="translate(3138.353 3881.289) rotate(-124.238)" fill="url(#linear-gradient-32)"/>
        <g opacity=".7">
          <polygon points="2264.044 885.877 1966.451 657.794 1925.895 734.165 2222.421 874.265 2264.044 885.877" fill="url(#linear-gradient-33)"/>
        </g>
        <polygon points="2264.045 885.875 2191.753 828.434 2175.732 856.182 2255.806 897.641 2264.045 885.875" fill="url(#linear-gradient-34)"/>
        <path d="M2870.775,859.755c-45.32,20.847-76.133,59.045-98.929,106.833,3.835-57.324,21.657-108.555,53.462-153.693,20.789,1.815,45.467,23.601,45.467,46.859Z" fill="url(#linear-gradient-35)"/>
        <path d="M2858.519,1049.847c32.939,12.378,27.864,11.06,52.197,13.55l9.193,66.485c-39.903-19.12-41.391-22.223-71.6-46.502l10.21-33.533Z" fill="url(#linear-gradient-36)"/>
        <path d="M2674.539,1126.084c-.661,0-1.268-.438-1.454-1.106-.223-.804.248-1.637,1.051-1.86,72.636-20.135,104.105-71.29,96.205-156.389-.077-.83.534-1.566,1.364-1.644.874-.093,1.566.535,1.644,1.364,8.056,86.793-24.132,138.992-98.405,159.581-.136.037-.271.055-.406.055Z" fill="url(#linear-gradient-37)"/>
        <path d="M2767.59,1158.358c-.705,0-1.336-.496-1.479-1.214-.164-.817.366-1.613,1.184-1.777,63.946-12.803,87.337-83.27,103.089-157.513.174-.812.97-1.329,1.792-1.163.815.174,1.336.975,1.163,1.792-15.967,75.252-39.793,146.7-105.451,159.846-.1.021-.199.03-.298.03Z" fill="url(#linear-gradient-38)"/>
      </g>
      <g display="none">
        <g>
          <path d="M1257.804,1598.374c15.227,25.586,18.293,64.989,21.09,100.939,3.252,41.8,7.672,98.605-8.152,135.823-14.612,34.37-25.387,28.702-49.051,35.234-46.513,12.839-324.688,58.086-383.62,9.792-58.016-47.548-78.251-141.201-40.303-213.863,23.417-44.838,78.985-107.463,368.679-103.545,63.878.864,78.615,14.21,91.357,35.62Z" fill="url(#linear-gradient-39)"/>
          <path d="M1239.917,1731.63c.879,11.127,6.582,21.309,15.602,27.883,9.02,6.574,20.48,8.912,31.338,6.33,16.292-3.874,30.924-7.313,30.924-7.313l.533-103.127-36.54-6.942c-11.702-2.223-23.771,1.138-32.639,9.089-8.869,7.951-13.522,19.583-12.584,31.457l3.365,42.624Z" fill="url(#linear-gradient-40)"/>
          <path d="M965.499,1849.728s36.456,237.441,137.691,372.27c190.884,254.225,145.467,614.216,145.24,829.825-.054,51.899-34.99,93.971-85.137,103.215-96.354,17.762-356.148,31.877-582.339-13.075-50.735-10.083-90.746-55.321-95.608-108.18-18.746-203.812,60.087-644.358,232.751-821.752,57.315-58.885,77.998-99.937,68.73-321.424l178.671-40.878Z" fill="url(#linear-gradient-41)"/>
          <path d="M1306.774,2218.075c-130.589-155.819-105.615-431.191-105.615-431.191l-151.436,51.213c32.915,277.723,159.477,382.823,225.973,409.541,8.514,3.421,37.082-22.401,31.078-29.564Z" fill="url(#linear-gradient-42)"/>
          <path d="M1282.296,2233.894c-130.589-155.819-142.23-428.396-142.23-428.396l-114.821,48.418c32.915,277.723,180.781,367.656,247.277,394.374,8.514,3.421,15.778-7.234,9.774-14.397Z" fill="url(#linear-gradient-43)"/>
          <path d="M1192.356,1593.096c17.274,28.034,20.588,70.593,23.611,109.42,3.516,45.144,8.293,106.492-9.892,147.383-16.953,38.121-34.495,19.584-244.332,68.805-128.881,30.231-231.587,59.666-315.384,4.892-85.239-55.718-114.022-172.297-55.427-262.622,35.402-54.57,107.283-104.082,492.175-97.129,76.348,1.379,94.7,5.641,109.248,29.251Z" fill="url(#linear-gradient-44)"/>
          <ellipse cx="1318.049" cy="1706.966" rx="51.564" ry="23.632" transform="translate(-395.711 3016.17) rotate(-89.704)" fill="url(#linear-gradient-45)"/>
        </g>
        <path d="M621.703,2687.852l-19.202,239.236c-1.959,24.407,23.065,45.036,54.631,45.036h434.76c30.23,0,54.736-18.985,54.736-42.404v-224.749c0-22.678-23.032-41.342-52.276-42.361l-415.558-14.488c-29.834-1.04-55.238,16.638-57.092,39.73Z" fill="#fff" opacity=".45"/>
      </g>
      <g display="none">
        <path d="M1444.466,3160.175h-1.616c.356,0,.56.187.56.901,0,8.558-23.431,15.681-61.327,21.282-37.794,5.603-89.901,8.758-147.51,8.758-115.319,0-208.836-12.772-208.836-29.886,0-.714.204-1.056.56-1.056h-2.636v-792.465h420.805v792.465Z" fill="url(#linear-gradient-46)"/>
        <path d="M1371.789,2293.069c-11.719-12.493-28.082-17.506-45.208-17.506h-184.015c-17.126,0-33.489,5.013-45.208,17.506l-71.621,75.315,208.836,41.078,208.836-40.819-71.621-75.574Z" fill="url(#linear-gradient-47)"/>
        <ellipse cx="1237.545" cy="2285.85" rx="127.764" ry="25.468" fill="url(#linear-gradient-48)"/>
        <path d="M1297.031,2143.485h-1.732c-3.382-3.072-29.266-4.817-60.725-4.817s-57.342,1.746-60.725,4.817h-2.752v144.364h2.752c-.246,0-.398-.005-.398.2,0,2.992,27.365,5.218,61.123,5.218s61.123-2.126,61.123-5.118c0-.205-.152-.3-.398-.3h1.732v-144.364Z" fill="url(#linear-gradient-49)"/>
        <ellipse cx="1234.773" cy="2143.23" rx="60.924" ry="6.579" fill="#d8dee8"/>
        <g>
          <circle cx="1234.574" cy="2220.482" r="29.925" transform="translate(-1208.52 1523.34) rotate(-45)" fill="url(#linear-gradient-50)"/>
          <circle cx="1234.574" cy="2220.482" r="9.444" transform="translate(-1208.52 1523.34) rotate(-45)" fill="url(#linear-gradient-51)"/>
        </g>
        <path d="M1457.794,2373.941c.93,5.056-2.357,9.986-7.307,10.936-142.591,27.343-288.737,27.343-431.328,0-4.966-.955-8.272-5.83-7.307-10.936.1-.557.199-1.109.301-1.664.93-5.061,5.616-8.374,10.499-7.444,140.286,26.9,284.055,26.9,424.341,0,4.871-.915,9.562,2.373,10.499,7.444.102.555.202,1.112.301,1.664Z" fill="url(#linear-gradient-52)"/>
        <path d="M1452.226,3163.444c.909,5.056-2.305,9.986-7.146,10.936-139.443,27.343-282.362,27.343-421.805,0-4.857-.955-8.09-5.83-7.146-10.936.097-.557.195-1.109.294-1.664.909-5.061,5.492-8.374,10.268-7.444,137.188,26.9,277.784,26.9,414.972,0,4.764-.915,9.351,2.373,10.267,7.444.1.555.197,1.112.295,1.664Z" fill="url(#linear-gradient-53)"/>
      </g>
    </g>
  </g>
</svg>