<?xml version="1.0" encoding="UTF-8"?>
<svg xmlns="http://www.w3.org/2000/svg" xmlns:xlink="http://www.w3.org/1999/xlink" version="1.1" viewBox="0 0 896.861 968.696">
  <defs>
    <linearGradient id="linear-gradient" x1="-1895.444" y1="-340.984" x2="-1073.583" y2="-340.984" gradientUnits="userSpaceOnUse">
      <stop offset="0" stop-color="#4f0606"/>
      <stop offset="1" stop-color="#a52929"/>
    </linearGradient>
    <linearGradient id="linear-gradient-2" x1="-1759.982" y1="-517.544" x2="-1181.881" y2="-517.544" xlink:href="#linear-gradient"/>
    <linearGradient id="linear-gradient-3" x1="-2689.724" y1="1570.446" x2="-2111.624" y2="1570.446" xlink:href="#linear-gradient"/>
    <linearGradient id="linear-gradient-4" x1="-2673.811" y1="1740.047" x2="-2067.656" y2="1740.047" xlink:href="#linear-gradient"/>
    <clipPath id="clippath">
      <path d="M804.834,2221.784v-.18c0-2.761-.436-5.132-1.306-7.112-.871-1.981-2.175-3.707-3.886-5.177-1.711-1.471-3.826-2.732-6.317-3.781-2.49-1.05-5.341-1.996-8.538-2.836-2.701-.721-4.937-1.351-6.722-1.891-1.771-.54-3.165-1.111-4.201-1.711-1.02-.601-1.726-1.276-2.116-2.026-.389-.75-.585-1.635-.585-2.656v-.18c0-1.561.675-2.866,2.026-3.916,1.35-1.051,3.376-1.576,6.077-1.576s5.402.555,8.102,1.665c2.701,1.111,5.462,2.627,8.283,4.546l7.203-10.443c-3.241-2.581-6.798-4.562-10.668-5.942-3.872-1.38-8.118-2.072-12.74-2.072-3.241,0-6.212.451-8.897,1.351-2.687.901-5.013,2.192-6.948,3.872-1.936,1.682-3.436,3.676-4.516,5.987-1.065,2.312-1.606,4.908-1.606,7.788v.181c0,3.121.495,5.731,1.486,7.833.99,2.1,2.4,3.855,4.201,5.267,1.8,1.41,4.007,2.596,6.588,3.556,2.595.961,5.476,1.83,8.672,2.611,2.64.66,4.801,1.291,6.453,1.891,1.65.601,2.94,1.2,3.885,1.801.93.6,1.561,1.245,1.891,1.935.331.691.496,1.486.496,2.386v.18c0,1.861-.795,3.316-2.386,4.366-1.59,1.051-3.826,1.576-6.707,1.576-3.602,0-6.917-.69-9.949-2.07-3.031-1.381-5.987-3.241-8.868-5.583l-8.192,9.814c3.781,3.421,7.983,5.957,12.604,7.607,4.622,1.651,9.333,2.476,14.135,2.476,3.421,0,6.542-.436,9.348-1.306,2.807-.87,5.237-2.131,7.263-3.781,2.025-1.65,3.601-3.691,4.741-6.122,1.125-2.431,1.696-5.208,1.696-8.328M717.8,2240.42v-63.022h-13.685v38.804l-29.53-38.804h-12.785v63.022h13.685v-40.064l30.522,40.064h11.793ZM608.617,2209.089c0,2.701-.465,5.237-1.395,7.608-.931,2.371-2.222,4.457-3.872,6.258-1.65,1.8-3.646,3.21-5.986,4.231-2.342,1.021-4.892,1.53-7.653,1.53-2.821,0-5.387-.525-7.698-1.575-2.311-1.05-4.321-2.477-6.032-4.277-1.71-1.8-3.03-3.901-3.961-6.303-.931-2.401-1.395-4.951-1.395-7.652v-.181c0-2.701.464-5.237,1.395-7.607.931-2.372,2.221-4.457,3.872-6.258,1.65-1.8,3.631-3.21,5.942-4.231,2.311-1.019,4.877-1.53,7.698-1.53,2.761,0,5.312.525,7.653,1.575,2.34,1.05,4.366,2.476,6.077,4.276,1.71,1.802,3.031,3.902,3.961,6.303.93,2.401,1.395,4.952,1.395,7.653v.18ZM623.113,2208.909v-.181c0-4.501-.827-8.717-2.477-12.648-1.65-3.932-3.961-7.353-6.932-10.265-2.971-2.91-6.497-5.221-10.578-6.932-4.083-1.711-8.554-2.566-13.416-2.566s-9.348.855-13.46,2.566c-4.111,1.711-7.652,4.052-10.623,7.022s-5.298,6.422-6.978,10.354c-1.68,3.931-2.521,8.147-2.521,12.649v.18c0,4.502.825,8.718,2.476,12.65,1.65,3.931,3.961,7.352,6.933,10.264,2.971,2.91,6.497,5.221,10.578,6.932,4.082,1.711,8.553,2.566,13.415,2.566s9.348-.855,13.46-2.566c4.111-1.711,7.652-4.051,10.623-7.022,2.971-2.971,5.296-6.423,6.978-10.354,1.68-3.931,2.521-8.147,2.521-12.649ZM516.811,2240.42v-63.022h-13.864v63.022h13.864ZM465.341,2190.182v-12.785h-52.218v12.785h19.177v50.237h13.864v-50.237h19.178ZM377.136,2212.961v-35.563h-13.865v36.103c0,5.042-1.201,8.823-3.601,11.344-2.401,2.521-5.731,3.782-9.994,3.782s-7.592-1.306-9.993-3.916c-2.401-2.612-3.602-6.498-3.602-11.66v-35.652h-13.864v36.013c0,9.303,2.431,16.296,7.292,20.977,4.862,4.682,11.524,7.022,19.987,7.022,4.202,0,8.013-.585,11.435-1.755,3.421-1.17,6.331-2.941,8.732-5.312,2.401-2.371,4.247-5.327,5.537-8.868,1.291-3.541,1.936-7.713,1.936-12.514ZM286.411,2240.42v-12.515h-31.421v-50.507h-13.865v63.022h45.286ZM187.942,2209.089c0,2.701-.465,5.237-1.395,7.608-.931,2.371-2.222,4.457-3.872,6.258-1.65,1.8-3.646,3.21-5.986,4.231-2.342,1.021-4.892,1.53-7.653,1.53-2.821,0-5.387-.525-7.698-1.575-2.311-1.05-4.321-2.477-6.032-4.277-1.71-1.8-3.03-3.901-3.961-6.303-.931-2.401-1.395-4.951-1.395-7.652v-.181c0-2.701.464-5.237,1.395-7.607.931-2.372,2.221-4.457,3.872-6.258,1.65-1.8,3.631-3.21,5.942-4.231,2.311-1.019,4.877-1.53,7.698-1.53,2.76,0,5.312.525,7.653,1.575,2.34,1.05,4.366,2.476,6.077,4.276,1.71,1.802,3.031,3.902,3.961,6.303.93,2.401,1.395,4.952,1.395,7.653v.18ZM202.438,2208.909v-.181c0-4.501-.827-8.717-2.476-12.648-1.65-3.932-3.961-7.353-6.932-10.265-2.971-2.91-6.497-5.221-10.578-6.932-4.082-1.711-8.554-2.566-13.415-2.566s-9.348.855-13.46,2.566c-4.111,1.711-7.652,4.052-10.623,7.022s-5.298,6.422-6.978,10.354c-1.68,3.931-2.521,8.147-2.521,12.649v.18c0,4.502.825,8.718,2.476,12.65,1.65,3.931,3.962,7.352,6.932,10.264,2.971,2.91,6.497,5.221,10.579,6.932,4.082,1.711,8.553,2.566,13.415,2.566s9.348-.855,13.46-2.566c4.111-1.711,7.652-4.051,10.623-7.022,2.971-2.971,5.296-6.423,6.978-10.354,1.68-3.931,2.521-8.147,2.521-12.649ZM99.828,2221.784v-.18c0-2.761-.436-5.132-1.306-7.112-.871-1.981-2.175-3.707-3.887-5.177-1.711-1.471-3.826-2.732-6.317-3.781-2.49-1.05-5.341-1.996-8.538-2.836-2.701-.721-4.937-1.351-6.723-1.891-1.77-.54-3.166-1.111-4.201-1.711-1.02-.601-1.726-1.276-2.116-2.026-.389-.75-.585-1.635-.585-2.656v-.18c0-1.561.675-2.866,2.025-3.916,1.351-1.051,3.376-1.576,6.077-1.576s5.402.555,8.103,1.665c2.701,1.111,5.462,2.627,8.282,4.546l7.203-10.443c-3.241-2.581-6.798-4.562-10.668-5.942-3.872-1.38-8.118-2.072-12.74-2.072-3.241,0-6.212.451-8.897,1.351-2.686.901-5.013,2.192-6.948,3.872-1.935,1.682-3.436,3.676-4.516,5.987-1.065,2.312-1.605,4.908-1.605,7.788v.181c0,3.121.495,5.731,1.485,7.833.99,2.1,2.4,3.855,4.202,5.267,1.8,1.41,4.007,2.596,6.587,3.556,2.596.961,5.476,1.83,8.672,2.611,2.641.66,4.801,1.291,6.453,1.891,1.65.601,2.94,1.2,3.886,1.801.93.6,1.561,1.245,1.891,1.935.331.691.496,1.486.496,2.386v.18c0,1.861-.795,3.316-2.386,4.366-1.59,1.051-3.826,1.576-6.707,1.576-3.602,0-6.917-.69-9.949-2.07-3.031-1.381-5.987-3.241-8.869-5.583l-8.192,9.814c3.782,3.421,7.983,5.957,12.604,7.607,4.622,1.651,9.334,2.476,14.135,2.476,3.421,0,6.542-.436,9.348-1.306,2.806-.87,5.237-2.131,7.263-3.781,2.026-1.65,3.602-3.691,4.742-6.122,1.125-2.431,1.696-5.208,1.696-8.328Z" clip-rule="evenodd" fill="none"/>
    </clipPath>
    <linearGradient id="linear-gradient-5" x1="427.437" y1="2186.044" x2="427.437" y2="2236.394" gradientUnits="userSpaceOnUse">
      <stop offset="0" stop-color="#064f32"/>
      <stop offset="1" stop-color="#29a529"/>
    </linearGradient>
    <linearGradient id="linear-gradient-6" x1="-4787.796" y1="2846.431" x2="-4032.986" y2="2846.431" xlink:href="#linear-gradient"/>
    <linearGradient id="linear-gradient-7" x1="84.59" y1="484.348" x2="839.399" y2="484.348" xlink:href="#linear-gradient"/>
    <clipPath id="clippath-1">
      <path d="M82.589,64.143v840.41h758.81V64.143H82.589ZM762.383,585.924c-4.131-1.916-8.181-4.007-12.119-6.262-8.879-5.084-17.273-10.928-25.546-17.091,3.032-6.853,5.967-13.786,8.804-20.792,11.19,9.816,24.039,17.998,37.308,24.744-2.732,6.532-5.552,12.997-8.447,19.402Z" fill="none"/>
    </clipPath>
    <linearGradient id="linear-gradient-8" x1="84.59" y1="484.348" x2="839.399" y2="484.348" xlink:href="#linear-gradient"/>
  </defs>
  <!-- Generator: Adobe Illustrator 28.6.0, SVG Export Plug-In . SVG Version: 1.2.0 Build 709)  -->
  <g>
    <g id="Layer_1" display="none">
      <g>
        <g>
          <path d="M-1653.237-183.247c-1.903,3.389-3.733,6.926-5.599,10.541-2.517,4.877-5.119,9.921-8.047,14.843-2.442,4.11-5.492,8.672-9.777,12.489,1.165,1.412,2.324,2.829,3.501,4.231l6.306-10.175c3.833-6.186,10.363-10.631,18.385-12.519,3.777-.891,7.42-1.111,10.167-1.158-5.111-6-10.088-12.085-14.935-18.252Z" fill="#fff" fill-rule="evenodd"/>
          <path d="M-1825.114-549.325c8.67-4.146,17.591-7.258,26.533-9.721-2.407-18.648-4.377-37.516-5.905-56.596l169.81-78.67,26.44-12.25,137.31-63.62,137.3,63.62,26.44,12.25,169.81,78.67c-6.46,80.66-20.54,157.68-44.21,229.23l-12.45,34.79c-12.402,32.155-26.913,63.084-43.729,92.606,8.975,9.65,19.986,18.587,32.99,26.764,18.686-32.08,35.047-66.198,49.089-102.35l9.17-24.81c29.37-83.81,46.96-177.93,52.99-282.16l-200-92.66-19.66-9.11-157.74-73.09-157.75,73.09-19.66,9.11-200,92.66c1.984,34.305,5.229,67.509,9.725,99.618,4.34-2.655,8.825-5.136,13.498-7.371Z" fill="#fff" fill-rule="evenodd"/>
          <path d="M-1265.348-215.557l-8.448,12.636c-3.887,5.385-7.878,10.706-11.952,15.974-2.524,3.595-5.249,7.053-8.176,10.344-46.621,57.616-104.958,107.81-177.002,148.742-47.227-26.829-88.552-57.641-124.558-91.908-3.418,1.278-7.267,2.402-11.409,2.792-1.149.109-2.348.165-3.557.165-4.757,0-9.17-.847-13.064-1.595-1.207-.231-2.412-.464-3.617-.665-1.908-.318-3.503-.472-4.88-.472-1.721,0-3.047.246-3.833.712l-11.358,6.729c49.51,52.117,108.204,96.2,176.276,132.082,91.85-48.42,166.66-111.76,224.82-189.65l14.834-21.384c-11.885-7.569-23.141-16.055-34.076-24.502Z" fill="#fff" fill-rule="evenodd"/>
          <path d="M-1705.001-183.003c8.124-14.734,13.892-31.47,17.104-49.579l-4.6-6.88c-21.84-35.33-40.16-72.83-55.33-112.16l-12.45-34.79c-1.414-4.274-2.789-8.571-4.135-12.883-1.63-1.097-3.294-2.146-4.997-3.13h-.083c-8.997,0-16.502-2.542-22.037-4.755-1.579-.633-3.11-1.285-4.59-1.916-3.802-1.621-7.421-3.164-11.286-4.125-1.512.178-3.064.355-4.64.525,5.066,18.199,10.625,35.965,16.697,53.284l9.17,24.81c17.82,45.88,39.36,88.5,64.68,127.81l16.496,23.788Z" fill="#fff" fill-rule="evenodd"/>
        </g>
        <path d="M-1700.89-166.523c-5.313.107-10.647-.807-15.624-2.671-2.814-1.055-5.536-2.418-8.477-3.023-2.944-.605-6.257-.338-8.566,1.586-.82.679-1.514,1.562-2.497,1.977-.885.368-1.88.306-2.84.299-3.748-.028-7.501.913-10.793,2.71,2.87-.074,5.744,1.164,7.659,3.301-4.136.443-7.919,3.326-9.444,7.198,3.505-1.152,7.304-1.391,10.928-.691-2.2,2.499-3.968,5.376-5.206,8.468,7.133-2.017,14.59-2.874,21.994-2.524,6.365.301,12.675,1.481,19.045,1.606,6.372.123,13.023-.927,18.214-4.627,3.955-2.816,6.76-6.945,9.24-11.12,8.804-14.799,14.878-31.575,26.932-43.87,3.994-4.073,8.552-7.548,12.696-11.465,11.136-10.522,19.178-24.282,22.88-39.151,11.356,3.014,21.653,6.78,31.494,11.5,4.217,2.024,8.508,4.353,11.231,8.157,3.229,4.509,3.765,10.427,3.278,15.951-1.018,11.57-5.951,22.46-7.659,33.949-.96,6.447-.939,13.199-3.681,19.108-1.479,3.187-3.7,5.971-5.981,8.649-4.664,5.475-10.251,10.969-17.377,11.929-5.749.777-11.4-1.555-17.105-2.61-3.904-.721-7.893-.844-11.862-.962-4.451-.134-8.962-.262-13.294.76-4.335,1.02-8.545,3.343-10.891,7.128,3.653-1.423,7.798-1.384,11.669-.329-4.627,2.191-8.361,6.205-10.214,10.979,5.142-1.908,10.751-2.538,16.187-1.822-1.356,2.133-2.388,4.476-3.044,6.917,4.961-2.939,11.157-2.71,16.846-1.762,5.686.946,11.382,2.529,17.124,1.984,5.014-.473,9.72-2.538,14.312-4.611,7.935-3.584,16.025-7.397,22.059-13.672,6.078-6.319,9.592-14.639,14.861-21.644,6.502-8.647,15.77-15.45,19.868-25.464.651,1.419,1.539,3.472,3.102,4.729,2.756-11.426,8.811-22.038,17.242-30.233,4.926,4.08,9.444,8.174,13.786,12.446-.582-2.075-1.161-4.149-1.743-6.224,20.548,15.534,42.797,28.819,66.221,39.535-16.445,1.725-28.258,20.168-44.779,19.822-5.144-.109-10.033-2.096-15-3.433-4.968-1.338-10.513-1.975-15.056.44-1.769.939-3.301,2.304-5.153,3.071-2.316.96-4.928.895-7.335,1.609-6.398,1.894-9.889,8.593-12.675,14.655,2.571-2.276,5.848-3.741,9.259-4.133-1.386,3.378-2.946,7.826-3.384,12.388,3.074-1.277,5.387-3.843,7.935-5.985,2.552-2.142,5.788-3.985,9.057-3.347-3.074,2.596-5.084,6.414-5.485,10.417,3.776-2.251,7.995-3.753,12.342-4.402,7.592-1.127,15.33.357,22.998-.032,7.599-.387,15.093-2.65,21.637-6.53,5.014-2.972,9.448-6.855,14.532-9.694,9.882-5.517,21.487-6.741,32.521-9.256,5.848-1.333,12.645-4.175,13.517-10.111,8.89,4.75,18.186,7.534,27.595,7.949-15.077,7.112-24.148,23.074-39.171,26.897-7.003,1.783-14.363.64-21.565.056-7.205-.586-14.917-.475-21.018,3.398-1.938,1.231-3.644,2.803-5.608,3.996-3.28,1.994-7.133,2.837-10.531,4.62-3.398,1.785-6.521,5.056-6.275,8.885,2.226-2.675,5.904-4.059,9.337-3.505-2.378,3.166-3.989,7.483-4.045,11.834,3.948-4.358,9.166-7.548,14.848-9.071-3.644,3.303-5.972,8.016-6.384,12.914,14.391-8.227,32.966-3.359,48.513-9.106,10.656-3.941,18.853-12.457,28.265-18.823,10.427-7.052,22.414-11.482,33.075-18.169,6.565-4.122,12.599-9.085,17.905-14.736,2.269-2.415,4.513-5.218,4.683-8.528,5.953-1.46,11.064-2.712,15.511-5.29,4.446-2.578,8.192-6.581,9.801-11.461,1.261.526,1.289,6.639,1.289,6.639,16.099-16.032,26.674-37.512,29.563-60.046,20.708,15.58,39.983,31.941,61.757,44.408,21.772,12.467,46.304,20.944,71.396,21.034,17.029.063,34.677-4.08,47.76-14.982,9.727-8.102,16.375-19.511,20.038-31.628,3.143-10.411,4.177-21.626,1.655-32.206-1.641-6.882-4.75-13.364-8.721-19.219-11.203-16.514-29.598-27.961-49.362-30.717,14.894,9.182,28.87,20.072,37.271,34.844,8.401,14.773,10.39,33.898,2.065,48.71-8.841,15.728-27.69,23.895-45.732,24.016-18.04.116-35.43-6.62-51.541-14.739-31.957-16.102-61.954-39.318-77.258-71.662-3.572-7.55-6.287-15.471-9.203-23.299-8.049-21.612-17.94-42.493-28.793-62.844-20.896-39.183-51.233-72.068-88.962-91.818-43.08-22.551-93.487-28.047-141.917-23.691-17.451,1.569-35.59,4.279-52.076-1.66,1.238-3.176,2.953-4.442,4.803-5.468-5.728-.568-11.509-.582-17.237-.04,1.604-2.499,3.829-4.59,6.423-6.036-8.946-1.977-18.142-2.819-27.296-2.492.955-2.13,2.205-4.124,3.702-5.913-6.6-1.477-13.445-1.834-20.161-1.055.422-10.826,1.899-20.814-.088-30.469-1.987-9.653-8.194-19.057-17.592-22.02-5.828-1.838-12.184-1.032-18.051.674-9.456,2.754-18.225,7.826-25.323,14.651-6.34-3.633-12.066-5.457-17.933-6.319-.429-6.057-1.514-13.021-4.722-19.134-3.206-6.108-8.978-11.317-15.849-11.95-6.876-.631-13.505,3.438-17.773,8.867-4.265,5.427-6.602,12.084-8.867,18.605-19.294,3.199-37.811,7.23-54.717,15.316-17.687,8.459-33.005,21.062-48.129,33.538-7.147,5.897-14.294,11.792-21.438,17.687-2,1.651-4.066,3.384-5.137,5.744-1.912,4.212-.174,9.099,1.567,13.385,2.045,5.035,4.303,10.35,8.742,13.491,2.086,1.479,4.546,2.381,6.59,3.915,3.5,2.629,5.424,6.79,7.988,10.334,6.649,9.182,17.829,14.24,29.041,15.905,11.215,1.664,22.632.327,33.888-1.011,7.52,1.484,13.533,4.571,19.748,7.061,6.217,2.487,12.9,4.409,20.524,3.767,25.666,13.596,44.927,38.74,51.369,67.061.661-1.593,1.321-3.185,1.982-4.778,1.762,10.04,5.719,19.686,11.512,28.07.283-3.897.566-7.791.848-11.688,2.114,7.988,5.691,15.589,10.499,22.31.25-1.537.503-3.074.753-4.613,14.453,14.94,17.291,37.567,16.593,58.342-1.094,32.576-9.328,65.505-27.926,93.392Z" fill="url(#linear-gradient)"/>
        <path d="M-1739.964-593.358c.838,0,1.685.039,2.517.115,3.207.295,6.328,1.156,9.274,2.51l145.802-67.558,27.29-12.64,84.15-38.99,84.16,38.99,27.28,12.64,157.59,73.02c-6.93,59.11-18.54,116.02-36,169.71l-14.97,41.55c-6.24,15.719-13.063,31.108-20.468,46.158,2.577,6.085,4.967,12.078,7.172,18,.566,1.518,1.124,3.04,1.682,4.561.085.231.168.454.252.685,11.752-22.35,22.169-45.49,31.341-69.334l13.57-38.54c18.65-58.08,30.69-119.82,37.44-184.07l-162.47-75.28-29.53-13.68-97.05-44.97-97.05,44.97-29.52,13.68-162.48,75.28c.348,3.315.72,6.619,1.096,9.92,5.684-4.301,12.336-6.727,18.921-6.727Z" fill="url(#linear-gradient-2)" fill-rule="evenodd"/>
      </g>
      <path d="M-2223.269,1337.536l-19.66-9.11-157.74-73.09-157.75,73.09-19.66,9.11-200,92.66c6.03,104.23,23.61,198.36,52.99,282.16l9.17,24.81c17.82,45.88,39.36,88.5,64.68,127.81l25.74,37.12c58.17,77.89,132.97,141.23,224.83,189.65,91.85-48.42,166.66-111.76,224.82-189.65l25.75-37.12c25.31-39.31,46.85-81.93,64.67-127.81l9.17-24.81c29.37-83.81,46.96-177.93,52.99-282.16l-200-92.66ZM-2111.329,1685.356l-12.45,34.79c-15.17,39.33-33.49,76.83-55.33,112.16l-24.43,36.54c-49.61,68.73-114.32,128.01-197.13,175.06-82.82-47.05-147.521-106.33-197.14-175.06l-24.43-36.54c-21.84-35.33-40.16-72.83-55.33-112.16l-12.45-34.79c-23.67-71.55-37.75-148.57-44.21-229.23l169.81-78.67,26.44-12.25,137.31-63.62,137.3,63.62,26.44,12.25,169.81,78.67c-6.46,80.66-20.54,157.68-44.21,229.23Z" fill="#031737" fill-rule="evenodd"/>
      <path d="M-2111.624,1475.216c-6.75,64.25-18.79,125.99-37.44,184.07l-13.57,38.54c-13.69,35.59-30.14,69.62-49.69,101.78-4.18-2.95-8.32-5.79-12.35-8.5.2-2.66.36-5.34.49-8.01,16.021-27.18,29.8-55.69,41.57-85.34l14.97-41.55c17.46-53.69,29.07-110.6,36-169.71l-157.59-73.02-27.28-12.64-84.16-38.99-84.15,38.99-27.29,12.64-157.59,73.02c6.93,59.11,18.54,116.02,36,169.71l14.97,41.55c11.77,29.65,25.55,58.16,41.57,85.34.13,2.67.3,5.35.5,8.01-4.04,2.71-8.18,5.55-12.36,8.5-19.55-32.16-36-66.19-49.69-101.78l-13.57-38.54c-18.65-58.08-30.69-119.82-37.44-184.07l162.48-75.28,29.52-13.68,97.05-44.97,97.05,44.97,29.53,13.68,162.47,75.28Z" fill="url(#linear-gradient-3)" fill-rule="evenodd"/>
      <path d="M-2372.555,1928.447l-2.272,2.731-1.433-22.304c-.145-2.258.27-4.478,1.171-6.542-1.374-.031-2.706-.099-4.006-.166-1.608-.082-3.127-.16-4.571-.16-1.365,0-2.518.072-3.521.221-2.047.305-4.072,1.028-5.85,2.088l-15.177,9.049.728-7.273-8.875,3.686,1.418-14.76c.171-1.78.511-3.62,1.026-5.551l-4.586-3.404c2.085-4.536,5.965-12.98,14.91-15.627,1.349-.4,2.566-.585,3.543-.733.327-.05.753-.114.999-.165.178-.11.453-.294.667-.438.627-.419,1.407-.941,2.353-1.443,2.795-1.486,5.979-2.241,9.46-2.241,2.518,0,5.178.387,8.133,1.183,1.074.289,2.094.599,3.08.899,2.191.665,4.26,1.294,5.856,1.328l.15.002c3.522,0,7.449-2.662,11.995-5.744.107-.073.214-.145.322-.218-4.5-2.447-8.93-5.023-13.285-7.724l3.701,13.205-23.843-23.463c-.968-.953-1.941-1.885-2.924-2.802-2.333,3.576-4.071,7.553-5.063,11.663l-3.292,13.647-6.308-5.073c-1.296,1.511-2.62,2.925-3.887,4.279-1.842,1.967-3.581,3.826-4.993,5.703-1.298,1.726-2.503,3.716-3.778,5.822-2.119,3.5-4.52,7.467-7.882,10.962-5.839,6.072-13.458,9.513-19.021,12.025-3.417,1.542-8.093,3.652-13.384,4.151-.848.081-1.732.121-2.623.121-3.509,0-6.764-.625-9.636-1.176-.89-.171-1.779-.343-2.668-.49-1.407-.235-2.584-.348-3.599-.348-1.269,0-2.247.181-2.828.525l-18.809,11.142,3.394-12.625-14.275,5.297,3.625-9.34-10.85,4.227,14.045-22.661c2.827-4.562,7.643-7.841,13.56-9.233,3.281-.774,6.433-.864,8.519-.864,1.268,0,2.503.037,3.593.07,3.06.092,6.531.195,10.096.853,1.506.279,2.888.625,4.225.961,1.908.479,3.711.931,5.017.931.206,0,.396-.012.566-.034,2.365-.319,5.26-3.434,7.232-5.749,1.161-1.363,2.454-2.935,3.113-4.354.874-1.883,1.169-4.625,1.482-7.529.143-1.329.291-2.703.503-4.128.653-4.394,1.806-8.476,2.921-12.424,1.197-4.24,2.328-8.244,2.665-12.083.234-2.661-.052-4.775-.787-5.801-.899-1.255-3.6-2.552-4.899-3.175-4.37-2.096-8.872-3.916-13.614-5.5-3.691,9.164-9.385,17.595-16.523,24.34-1.441,1.362-2.893,2.616-4.298,3.828-1.742,1.504-3.387,2.925-4.824,4.39-5.181,5.285-8.801,12.3-12.633,19.727-1.856,3.597-3.776,7.317-5.935,10.948-2.177,3.664-4.987,7.828-9.302,10.901-4.718,3.364-10.735,5.07-17.881,5.07-.296,0-.592-.003-.887-.009-2.968-.058-5.764-.367-8.467-.666-2.043-.226-3.974-.439-5.829-.527-.651-.031-1.311-.046-1.964-.046-3.861,0-7.702.532-11.416,1.582l-17.41,4.921,2.91-7.268-7.375,2.426,6.953-17.645c1.297-3.291,3.598-6.072,6.473-8.013l-1.139-4.281c3.349-1.827,7.095-2.875,10.905-3.058,2.617-2.017,5.909-3.09,9.538-3.09,1.265,0,2.552.133,3.827.395,2.358.485,4.403,1.325,6.046,1.999.511.21,1.022.421,1.538.614,1.198.449,2.451.795,3.725,1.031,9.975-16.777,15.618-37.368,16.375-59.905.274-8.162-.297-15.14-1.734-21.008l-3.182-4.447-.301,4.154-14.372-20.801c-.468-.677-.921-1.363-1.361-2.06l-3.75,9.04-6.198-27.245c-4.021-17.675-15.659-33.378-31.337-42.44h-.061c-6.635,0-12.171-1.875-16.253-3.507-1.164-.467-2.294-.948-3.385-1.413-2.804-1.196-5.473-2.333-8.324-3.042-5.06.596-10.664,1.201-16.252,1.201-3.429,0-6.569-.218-9.597-.668-11.729-1.741-21.432-7.18-27.323-15.315-.697-.963-1.307-1.918-1.846-2.76-.764-1.196-1.631-2.551-2.181-2.964-.235-.176-.839-.498-1.373-.782-.932-.496-2.092-1.113-3.289-1.961-5.497-3.89-7.935-9.892-9.548-13.864-1.331-3.278-4.102-10.099-1.013-16.901,1.656-3.65,4.408-5.92,6.229-7.422l15.81-13.045c11.418-9.419,23.224-19.158,37.322-25.901,12.246-5.857,25.171-8.931,37.582-11.159,1.47-3.797,3.322-7.724,6.155-11.329,4.917-6.255,12.044-9.988,19.064-9.988.618,0,1.243.028,1.856.085,7.667.706,14.678,5.768,18.758,13.541,1.702,3.242,2.901,6.815,3.662,10.962,1.298.4,2.578.862,3.851,1.389,5.237-3.955,11.191-6.956,17.501-8.794,3.764-1.094,7.197-1.625,10.501-1.625,2.802,0,5.487.399,7.98,1.185,9.429,2.972,16.716,11.761,19.016,22.935,1.07,5.198,1.035,10.284.778,15.242,2.485.2,4.955.573,7.38,1.116l14.263,3.191-1.734,2.072c1.625.266,3.243.576,4.85.931l22.878,5.057-1.276.711,13.682,1.356-6.244,3.467c2.181-.176,4.4-.39,6.672-.611,1.475-.143,2.946-.285,4.41-.417,7.744-.696,15.467-1.05,22.954-1.05,32.769,0,61.919,6.562,86.641,19.502,28.364,14.848,52.342,39.544,69.339,71.417,9.054,16.976,16.159,32.49,21.723,47.432.417,1.119.829,2.242,1.24,3.364,1.694,4.619,3.294,8.982,5.252,13.12,9.085,19.201,26.896,35.59,52.94,48.712,9.166,4.618,21.277,9.919,33.67,9.919h.281c11.354-.077,21.57-5.248,26.027-13.174,4.21-7.492,3.62-18.155-1.502-27.163-4.522-7.95-12.053-14.896-24.422-22.522l5.901-16.394c17.001,2.371,32.906,12.268,42.543,26.474,3.731,5.503,6.33,11.258,7.724,17.108,2.082,8.734,1.613,18.552-1.358,28.39-3.418,11.309-9.505,20.85-17.604,27.595-13.004,10.837-29.281,13.112-40.644,13.112h-.31c-18.629-.068-37.823-5.683-57.048-16.691-12.646-7.241-24.242-16.221-35.455-24.909-4.107,13.151-11.383,25.256-21.193,35.025l-15.087,15.023-.035-7.695c-1.309.482-2.635.892-3.981,1.268-1.102,1.947-2.484,3.576-3.763,4.938-4.432,4.72-9.466,8.862-14.961,12.312-3.998,2.508-8.097,4.56-12.061,6.545-4.331,2.169-8.423,4.217-12.079,6.69-1.985,1.343-3.953,2.883-6.036,4.514-4.726,3.7-10.083,7.894-16.708,10.344-6.37,2.355-12.979,2.745-18.81,3.091-6.216.367-11.584.685-15.641,3.004l-14.71,8.41.115-1.369-5.267,5.815.121-9.417ZM-2319.352,1883.389c-1.86.416-3.711.783-5.507,1.139-.208.041-.415.082-.622.123,1.507-.014,2.767-.155,3.848-.43.768-.195,1.527-.477,2.282-.832Z" fill="#fff"/>
      <path d="M-2530.32,1868.719c-3.919.079-7.853-.595-11.523-1.97-2.075-.778-4.083-1.783-6.252-2.229-2.171-.446-4.614-.25-6.317,1.169-.605.501-1.116,1.152-1.841,1.458-.653.272-1.387.226-2.094.22-2.765-.02-5.532.674-7.96,1.999,2.116-.055,4.237.858,5.649,2.435-3.05.327-5.84,2.453-6.965,5.309,2.585-.85,5.387-1.026,8.06-.51-1.622,1.843-2.927,3.965-3.84,6.245,5.261-1.487,10.761-2.12,16.222-1.862,4.695.222,9.349,1.092,14.047,1.185,4.7.091,9.605-.684,13.433-3.413,2.917-2.077,4.985-5.122,6.815-8.201,6.493-10.915,10.973-23.288,19.863-32.356,2.946-3.004,6.307-5.567,9.364-8.456,8.213-7.76,14.144-17.909,16.875-28.875,8.376,2.223,15.97,5.001,23.228,8.482,3.11,1.492,6.275,3.211,8.284,6.016,2.382,3.325,2.777,7.69,2.417,11.764-.751,8.533-4.389,16.565-5.649,25.039-.708,4.755-.692,9.735-2.715,14.093-1.091,2.351-2.729,4.404-4.411,6.379-3.44,4.038-7.56,8.09-12.816,8.798-4.24.573-8.408-1.147-12.616-1.925-2.879-.532-5.822-.622-8.749-.71-3.283-.099-6.61-.193-9.805.561-3.197.752-6.302,2.466-8.032,5.257,2.694-1.05,5.751-1.021,8.607-.243-3.413,1.616-6.167,4.577-7.533,8.097,3.792-1.407,7.93-1.872,11.939-1.344-1,1.573-1.761,3.301-2.245,5.102,3.659-2.168,8.229-1.999,12.424-1.299,4.194.698,8.395,1.865,12.63,1.464,3.698-.349,7.169-1.872,10.556-3.401,5.852-2.643,11.819-5.456,16.269-10.084,4.483-4.661,7.075-10.797,10.961-15.963,4.796-6.377,11.631-11.395,14.654-18.781.48,1.046,1.135,2.561,2.288,3.488,2.033-8.427,6.499-16.254,12.717-22.298,3.633,3.009,6.965,6.028,10.168,9.179-.429-1.53-.856-3.06-1.286-4.59,15.155,11.457,31.564,21.255,48.841,29.159-12.129,1.272-20.841,14.874-33.026,14.62-3.794-.08-7.4-1.546-11.063-2.532-3.664-.987-7.754-1.457-11.105.325-1.304.692-2.435,1.699-3.801,2.265-1.708.708-3.635.66-5.41,1.187-4.719,1.397-7.294,6.338-9.349,10.809,1.896-1.679,4.313-2.759,6.829-3.048-1.022,2.491-2.173,5.772-2.496,9.137,2.267-.942,3.973-2.835,5.852-4.414,1.882-1.58,4.269-2.939,6.68-2.469-2.267,1.915-3.749,4.731-4.045,7.683,2.785-1.66,5.897-2.768,9.103-3.247,5.599-.831,11.306.263,16.962-.024,5.604-.286,11.132-1.954,15.958-4.816,3.698-2.192,6.969-5.056,10.718-7.15,7.288-4.069,15.847-4.972,23.985-6.827,4.313-.983,9.326-3.079,9.969-7.458,6.557,3.503,13.413,5.556,20.352,5.863-11.12,5.245-17.81,17.018-28.891,19.838-5.165,1.315-10.593.472-15.905.041-5.314-.433-11.002-.35-15.502,2.506-1.429.908-2.688,2.067-4.136,2.947-2.419,1.47-5.261,2.093-7.767,3.407-2.506,1.316-4.809,3.729-4.628,6.553,1.641-1.973,4.355-2.994,6.887-2.585-1.754,2.335-2.942,5.519-2.983,8.728,2.912-3.214,6.76-5.567,10.951-6.69-2.688,2.436-4.404,5.912-4.709,9.525,10.614-6.068,24.314-2.477,35.781-6.716,7.859-2.906,13.905-9.188,20.846-13.883,7.69-5.201,16.531-8.468,24.394-13.401,4.842-3.04,9.292-6.7,13.206-10.869,1.674-1.782,3.329-3.849,3.454-6.29,4.39-1.077,8.16-2,11.44-3.901,3.279-1.901,6.042-4.854,7.229-8.453.93.388.951,4.897.951,4.897,11.874-11.824,19.673-27.666,21.804-44.286,15.273,11.491,29.489,23.558,45.548,32.753,16.058,9.195,34.151,15.447,52.657,15.514,12.559.046,25.575-3.009,35.225-11.05,7.174-5.975,12.077-14.39,14.779-23.327,2.318-7.678,3.081-15.95,1.221-23.753-1.21-5.076-3.503-9.856-6.432-14.175-8.263-12.18-21.829-20.622-36.406-22.655,10.985,6.772,21.293,14.804,27.489,25.699,6.196,10.896,7.663,25.001,1.523,35.926-6.521,11.6-20.422,17.623-33.729,17.712-13.305.085-26.131-4.883-38.014-10.87-23.57-11.876-45.693-28.998-56.981-52.854-2.635-5.568-4.637-11.411-6.787-17.184-5.936-15.94-13.231-31.341-21.236-46.35-15.411-28.899-37.786-53.153-65.613-67.719-31.773-16.632-68.951-20.686-104.67-17.473-12.871,1.157-26.249,3.156-38.408-1.224.913-2.342,2.178-3.276,3.542-4.033-4.225-.419-8.489-.429-12.713-.029,1.183-1.843,2.824-3.385,4.738-4.452-6.598-1.458-13.38-2.079-20.132-1.838.704-1.571,1.626-3.042,2.73-4.361-4.868-1.089-9.916-1.352-14.869-.778.311-7.984,1.4-15.351-.065-22.472-1.465-7.119-6.044-14.056-12.975-16.24-4.298-1.356-8.986-.761-13.313.497-6.974,2.031-13.442,5.772-18.677,10.805-4.676-2.679-8.899-4.025-13.226-4.661-.316-4.468-1.116-9.603-3.483-14.112-2.365-4.505-6.622-8.347-11.689-8.814-5.071-.465-9.961,2.535-13.108,6.54-3.146,4.002-4.869,8.913-6.54,13.722-14.23,2.359-27.887,5.333-40.356,11.296-13.045,6.239-24.343,15.534-35.497,24.736-5.271,4.35-10.542,8.697-15.811,13.045-1.475,1.217-2.999,2.496-3.789,4.237-1.411,3.107-.128,6.711,1.156,9.872,1.508,3.713,3.173,7.634,6.447,9.95,1.539,1.091,3.353,1.756,4.861,2.888,2.582,1.939,4.001,5.008,5.892,7.622,4.904,6.772,13.149,10.503,21.419,11.73,8.271,1.227,16.692.241,24.994-.746,5.546,1.094,9.981,3.372,14.565,5.208,4.585,1.834,9.514,3.252,15.138,2.778,18.93,10.027,33.136,28.572,37.887,49.46.487-1.175.975-2.349,1.462-3.524,1.299,7.405,4.218,14.519,8.49,20.703.209-2.874.417-5.746.626-8.62,1.559,5.892,4.197,11.498,7.743,16.454.185-1.134.371-2.267.556-3.402,10.66,11.019,12.753,27.707,12.238,43.03-.807,24.026-6.88,48.313-20.597,68.88Z" fill="url(#linear-gradient-4)"/>
      <path d="M76.938,2072.7v-24.215h111.392v24.215h-41.21v69.375h-28.797v-69.375h-41.385ZM8.373,2121.001c13.898,0,21.924-.218,24.084-.677,2.205-.415,3.294-2.117,3.294-5.105,0-3.556-1.528-5.825-4.602-6.784-3.033-.873-10.646-1.31-22.776-1.31-23.975,0-39.117-1.746-45.399-5.215-6.283-3.489-9.424-12.128-9.424-25.917,0-12.762,4.101-20.92,12.304-24.499,6.283-2.704,20.245-4.057,41.888-4.057,19.263,0,31.479.522,36.649,1.57,12.108,2.421,18.173,12.719,18.173,30.891h-28.797c0-4.973-1.09-7.897-3.249-8.77-2.205-.786-9.752-1.178-22.646-1.178-13.002,0-20.484.219-22.491.677-2.03.501-3.033,2.29-3.033,5.366,0,3.208,1.702,5.301,5.105,6.262,3.425.96,10.384,1.441,20.943,1.441,23.736,0,39.05,1.875,45.922,5.627,6.828,3.752,10.231,12.391,10.231,25.917,0,12.479-3.84,20.464-11.541,23.954-6.61,2.967-21.532,4.451-44.765,4.451-17.867,0-29.451-.393-34.796-1.178-8.182-1.221-13.766-4.102-16.734-8.639-2.988-4.451-4.471-12.216-4.471-23.299h28.795c0,5.236,1.135,8.29,3.404,9.163,2.268.872,10.253,1.309,23.932,1.309ZM-160.828,2142.075v-93.59H-60.019v22.645h-72.014v12.96H-63.312v22.513h-68.721v12.828H-60.019v22.645h-100.809ZM-249.965,2094.952h41.624c3.381,0,5.955-.742,7.701-2.203,2.117-1.834,3.163-4.8,3.163-8.923,0-4.253-1.046-7.265-3.163-9.01-1.657-1.417-4.231-2.116-7.701-2.116h-41.624v22.253ZM1039.502,2048.595h28.797v69.265h65.339v24.215h-94.136v-93.48ZM934.789,2095.367c0,11.955,1.396,18.871,4.188,20.791,2.706,2.007,12.305,3.01,28.797,3.01,16.58,0,26.267-1.003,29.059-3.01,2.706-1.92,4.059-8.835,4.059-20.791,0-12.063-1.353-19.088-4.059-21.097-2.706-1.918-12.348-2.878-28.927-2.878s-26.223.96-28.929,2.878c-2.792,2.008-4.188,9.033-4.188,21.097ZM1029.686,2095.367c0,22.754-2.749,36.366-8.247,40.817-5.933,4.799-23.822,7.199-53.666,7.199-21.816,0-36.127-.785-42.955-2.356-8.553-2.008-13.94-6.371-16.21-13.068-1.745-5.17-2.617-16.035-2.617-32.593,0-22.776,2.706-36.388,8.115-40.839,5.936-4.909,23.824-7.353,53.668-7.353s47.624,2.401,53.536,7.222c5.585,4.537,8.377,18.194,8.377,40.97ZM804.834,2072.7v18.98h46.184c3.163,0,5.433-.698,6.807-2.072,1.331-1.331,1.985-3.775,1.985-7.352s-.699-6.065-2.116-7.44c-1.374-1.417-3.599-2.116-6.675-2.116h-46.184ZM776.037,2048.485h83.772c10.296,0,17.585,1.877,21.859,5.629,4.626,4.102,6.939,11.3,6.939,21.598,0,7.94-.96,13.875-2.88,17.779-2.007,3.95-5.345,6.829-10.057,8.662,5.213,2.268,8.704,4.581,10.45,6.937,1.657,2.356,2.487,6.37,2.487,12.042v20.943h-28.797v-16.754c0-2.444-.699-4.538-2.116-6.283-1.636-2.095-4.08-3.141-7.308-3.141h-45.551v26.178h-28.797v-93.59ZM653.368,2072.7v-24.215h111.392v24.215h-41.21v69.375h-28.797v-69.375h-41.385ZM403.385,2095.367c0,11.955,1.396,18.871,4.188,20.791,2.706,2.007,12.304,3.01,28.797,3.01,16.58,0,26.267-1.003,29.059-3.01,2.706-1.92,4.058-8.835,4.058-20.791,0-12.063-1.353-19.088-4.058-21.097-2.706-1.918-12.348-2.878-28.927-2.878s-26.223.96-28.928,2.878c-2.792,2.008-4.188,9.033-4.188,21.097ZM498.283,2095.367c0,22.754-2.749,36.366-8.246,40.817-5.934,4.799-23.822,7.199-53.666,7.199-21.815,0-36.127-.785-42.955-2.356-8.552-2.008-13.94-6.371-16.209-13.068-1.746-5.17-2.618-16.035-2.618-32.593,0-22.776,2.706-36.388,8.115-40.839,5.935-4.909,23.824-7.353,53.668-7.353s47.624,2.401,53.537,7.222c5.584,4.537,8.376,18.194,8.376,40.97ZM609.149,2120.257v-71.488h28.797v93.436h-47.122l-49.348-69.244c-.339-.708-.688-1.455-1.047-2.243v71.487h-28.797v-93.436h47.122l49.216,69.09c.385.784.77,1.592,1.178,2.397ZM307.07,2047.175c26.704,0,43.152,2.226,49.327,6.676,5.409,3.862,8.114,14.071,8.114,30.652h-28.905c0-5.433-1.439-8.88-4.32-10.363-3.577-1.834-11.649-2.749-24.216-2.749-14.027,0-22.273,1.09-24.739,3.294-2.443,2.16-3.664,9.054-3.664,20.681,0,11.498,1.221,18.346,3.664,20.551,2.466,2.16,10.712,3.25,24.739,3.25,12.741,0,20.726-.785,23.955-2.356,3.142-1.483,4.712-5.039,4.712-10.71h28.774c0,16.646-2.596,26.855-7.832,30.607-6.195,4.449-22.733,6.675-49.609,6.675s-43.107-2.444-48.692-7.309c-5.672-4.909-8.508-18.521-8.508-40.839s2.706-35.756,8.115-40.446c5.869-5.084,22.21-7.614,49.086-7.614ZM-278.762,2048.485h70.421c15.337,0,25.459,1.877,30.368,5.629,6.108,4.646,9.162,14.551,9.162,29.712s-3.01,24.957-9.032,29.583c-4.996,3.839-15.162,5.759-30.498,5.759h-41.624v22.907h-28.797v-93.59Z" fill="#031737"/>
      <g clip-path="url(#clippath)">
        <rect x="50.04" y="2176.317" width="754.794" height="65.183" fill="url(#linear-gradient-5)"/>
      </g>
      <text transform="translate(-294.511 2391.711)" font-family="MyriadPro-Regular, &apos;Myriad Pro&apos;" font-size="195.823"><tspan x="0" y="0">RAT AND MICE</tspan></text>
      <path d="M-4032.986,2603.086c-6.03,104.23-23.62,198.35-52.99,282.16l-9.17,24.81c-17.82,45.88-39.36,88.5-64.67,127.81l-25.75,37.12c-58.16,77.89-132.97,141.23-224.82,189.65-91.86-48.42-166.66-111.76-224.83-189.65l-25.74-37.12c-25.32-39.31-46.86-81.93-64.68-127.81l-9.17-24.81c-29.38-83.8-46.96-177.93-52.99-282.16l200-92.66,19.66-9.11,157.75-73.09,157.74,73.09,19.66,9.11,200,92.66Z" fill="url(#linear-gradient-6)" fill-rule="evenodd"/>
      <path d="M-3306.974,2246.794l-2.642,3.176-1.666-25.935c-.169-2.625.314-5.207,1.362-7.608-1.597-.036-3.147-.115-4.659-.193-1.87-.096-3.636-.186-5.315-.186-1.588,0-2.927.084-4.095.257-2.38.355-4.735,1.195-6.802,2.427l-17.648,10.522.847-8.457-10.32,4.287,1.648-17.163c.198-2.07.594-4.21,1.193-6.455l-5.333-3.958c2.424-5.275,6.936-15.093,17.338-18.172,1.568-.466,2.983-.68,4.12-.852.38-.058.876-.133,1.162-.191.207-.128.527-.342.776-.509.729-.487,1.636-1.094,2.736-1.678,3.25-1.728,6.953-2.606,11.001-2.606,2.927,0,6.021.45,9.457,1.376,1.249.336,2.435.697,3.582,1.045,2.547.774,4.954,1.505,6.809,1.544l.174.002c4.096,0,8.662-3.096,13.948-6.68.125-.085.249-.169.374-.254-5.232-2.846-10.384-5.841-15.448-8.981l4.303,15.355-27.724-27.283c-1.125-1.108-2.257-2.192-3.4-3.258-2.713,4.159-4.734,8.782-5.887,13.562l-3.828,15.869-7.335-5.899c-1.507,1.758-3.046,3.401-4.52,4.975-2.142,2.287-4.164,4.448-5.806,6.632-1.51,2.007-2.911,4.321-4.393,6.77-2.464,4.07-5.256,8.682-9.165,12.747-6.789,7.06-15.648,11.062-22.118,13.983-3.974,1.793-9.41,4.246-15.563,4.826-.986.094-2.014.141-3.05.141-4.08,0-7.865-.726-11.204-1.367-1.035-.199-2.069-.398-3.102-.57-1.636-.273-3.004-.405-4.185-.405-1.476,0-2.613.211-3.288.611l-21.871,12.956,3.946-14.68-16.599,6.159,4.215-10.86-12.617,4.915,16.331-26.351c3.288-5.305,8.887-9.118,15.767-10.736,3.815-.9,7.481-1.004,9.906-1.004,1.474,0,2.911.043,4.178.082,3.558.106,7.594.227,11.74.992,1.751.324,3.359.727,4.913,1.117,2.219.557,4.315,1.083,5.834,1.083.239,0,.461-.013.658-.04,2.749-.371,6.116-3.993,8.409-6.685,1.35-1.585,2.854-3.413,3.62-5.063,1.016-2.189,1.359-5.378,1.723-8.755.166-1.545.338-3.143.585-4.8.76-5.109,2.1-9.856,3.396-14.447,1.392-4.93,2.707-9.586,3.099-14.051.273-3.095-.061-5.552-.915-6.745-1.045-1.46-4.187-2.967-5.696-3.692-5.081-2.437-10.316-4.553-15.831-6.396-4.292,10.656-10.913,20.46-19.213,28.302-1.676,1.584-3.364,3.042-4.997,4.452-2.025,1.749-3.939,3.401-5.609,5.105-6.025,6.146-10.234,14.303-14.69,22.939-2.158,4.183-4.39,8.509-6.902,12.73-2.531,4.261-5.799,9.103-10.816,12.676-5.486,3.911-12.483,5.896-20.792,5.896-.344,0-.689-.003-1.032-.01-3.452-.067-6.702-.427-9.846-.774-2.376-.263-4.621-.511-6.778-.613-.757-.036-1.525-.054-2.284-.054-4.49,0-8.956.619-13.275,1.84l-20.244,5.723,3.383-8.451-8.576,2.821,8.085-20.517c1.508-3.827,4.184-7.06,7.527-9.318l-1.324-4.978c3.894-2.125,8.25-3.343,12.68-3.555,3.043-2.346,6.871-3.593,11.091-3.593,1.471,0,2.968.155,4.45.459,2.742.564,5.12,1.541,7.03,2.325.594.244,1.188.489,1.788.714,1.393.522,2.85.924,4.331,1.199,11.599-19.509,18.161-43.451,19.041-69.658.319-9.49-.346-17.604-2.017-24.429l-3.7-5.171-.35,4.83-16.712-24.187c-.544-.787-1.071-1.585-1.583-2.395l-4.36,10.512-7.207-31.68c-4.675-20.553-18.208-38.812-36.439-49.35h-.071c-7.715,0-14.153-2.18-18.899-4.078-1.354-.542-2.667-1.102-3.937-1.643-3.261-1.39-6.365-2.713-9.679-3.537-5.884.693-12.4,1.397-18.898,1.397-3.988,0-7.638-.254-11.16-.777-13.639-2.024-24.922-8.349-31.771-17.808-.81-1.12-1.52-2.23-2.146-3.209-.889-1.391-1.896-2.966-2.537-3.447-.273-.205-.976-.579-1.596-.909-1.084-.577-2.433-1.294-3.825-2.28-6.392-4.524-9.227-11.503-11.102-16.122-1.548-3.811-4.77-11.743-1.178-19.653,1.926-4.244,5.126-6.884,7.243-8.631l18.384-15.168c13.277-10.953,27.006-22.278,43.398-30.117,14.239-6.81,29.269-10.385,43.701-12.976,1.709-4.416,3.863-8.982,7.157-13.173,5.718-7.273,14.005-11.615,22.168-11.615.719,0,1.445.033,2.158.099,8.915.82,17.068,6.707,21.812,15.745,1.979,3.77,3.374,7.924,4.259,12.747,1.509.466,2.997,1.002,4.478,1.615,6.09-4.599,13.013-8.089,20.35-10.226,4.376-1.272,8.369-1.89,12.21-1.89,3.258,0,6.38.464,9.279,1.378,10.964,3.456,19.437,13.675,22.112,26.669,1.244,6.044,1.204,11.959.905,17.724,2.89.233,5.761.666,8.582,1.297l16.586,3.711-2.016,2.409c1.89.309,3.771.67,5.639,1.083l26.603,5.881-1.484.827,15.91,1.577-7.261,4.031c2.536-.204,5.116-.454,7.758-.71,1.715-.166,3.425-.332,5.128-.485,9.005-.81,17.985-1.22,26.692-1.22,38.104,0,72,7.63,100.747,22.678,32.982,17.265,60.863,45.982,80.628,83.045,10.528,19.739,18.79,37.78,25.26,55.154.485,1.302.964,2.607,1.442,3.912,1.97,5.371,3.83,10.445,6.107,15.256,10.564,22.327,31.275,41.384,61.559,56.642,10.658,5.37,24.741,11.534,39.152,11.534h.327c13.202-.09,25.082-6.102,30.264-15.319,4.895-8.712,4.21-21.11-1.747-31.586-5.258-9.245-14.016-17.322-28.398-26.188l6.862-19.063c19.769,2.757,38.263,14.265,49.47,30.784,4.339,6.399,7.36,13.091,8.982,19.894,2.421,10.156,1.875,21.572-1.579,33.012-3.975,13.15-11.053,24.244-20.47,32.087-15.121,12.601-34.048,15.247-47.261,15.247h-.361c-21.662-.079-43.98-6.608-66.335-19.408-14.705-8.42-28.188-18.862-41.227-28.964-4.775,15.292-13.237,29.368-24.644,40.727l-17.543,17.469-.04-8.947c-1.522.56-3.064,1.038-4.629,1.474-1.282,2.264-2.888,4.159-4.376,5.742-5.153,5.488-11.007,10.305-17.397,14.317-4.649,2.916-9.415,5.303-14.025,7.611-5.037,2.522-9.794,4.904-14.046,7.779-2.308,1.561-4.597,3.353-7.019,5.249-5.496,4.303-11.725,9.179-19.428,12.028-7.407,2.738-15.093,3.192-21.873,3.594-7.228.427-13.47.797-18.187,3.493l-17.105,9.779.134-1.592-6.125,6.761.14-10.95ZM-3245.109,2194.401c-2.163.483-4.316.91-6.403,1.324-.242.048-.483.096-.724.144,1.752-.016,3.218-.181,4.474-.5.893-.227,1.775-.555,2.653-.968Z" fill="#606060"/>
    </g>
    <g id="Layer_2">
      <g>
        <path d="M639.4,148.343l-19.66-9.11-157.74-73.09-157.75,73.09-19.66,9.11-200,92.66c6.03,104.23,23.61,198.36,52.99,282.16l9.17,24.81c17.82,45.88,39.36,88.5,64.68,127.81l25.74,37.12c58.17,77.89,132.97,141.23,224.83,189.65,91.85-48.42,166.66-111.76,224.82-189.65l25.75-37.12c25.31-39.31,46.85-81.93,64.67-127.81l9.17-24.81c29.37-83.81,46.96-177.93,52.99-282.16l-200-92.66ZM462,854.713c-82.82-47.05-147.521-106.33-197.14-175.06l-24.43-36.54c-21.84-35.33-40.16-72.83-55.33-112.16l-12.45-34.79c-23.67-71.55-37.75-148.57-44.21-229.23l113.176-52.432,382.159,509.546c-43.919,50.08-97.371,94.074-161.775,130.666ZM751.34,496.163l-12.45,34.79c-15.17,39.33-33.49,76.83-55.33,112.16l-15.158,22.672L283.029,195.314l15.22-7.051,26.44-12.25,137.31-63.62,137.3,63.62,26.44,12.25,169.81,78.67c-6.46,80.66-20.54,157.68-44.21,229.23Z" fill="url(#linear-gradient-7)"/>
        <path d="M334.283,604.763c-4.557.092-9.131-.692-13.4-2.29-2.413-.905-4.747-2.074-7.27-2.592-2.525-.519-5.366-.29-7.346,1.36-.704.583-1.298,1.34-2.141,1.696-.759.316-1.612.262-2.435.256-3.215-.024-6.433.783-9.256,2.324,2.461-.064,4.926.998,6.568,2.831-3.547.38-6.791,2.853-8.099,6.173,3.006-.988,6.264-1.193,9.372-.593-1.887,2.143-3.403,4.61-4.465,7.262,6.117-1.73,12.513-2.465,18.863-2.165,5.459.258,10.871,1.27,16.334,1.378,5.465.105,11.169-.795,15.62-3.968,3.392-2.415,5.797-5.956,7.924-9.537,7.551-12.692,12.759-27.079,23.097-37.624,3.426-3.493,7.334-6.473,10.889-9.833,9.55-9.024,16.447-20.825,19.622-33.576,9.739,2.584,18.57,5.815,27.01,9.863,3.616,1.735,7.296,3.733,9.632,6.996,2.769,3.867,3.229,8.942,2.811,13.68-.873,9.922-5.103,19.262-6.569,29.115-.823,5.529-.805,11.32-3.157,16.388-1.268,2.733-3.173,5.121-5.129,7.417-4,4.696-8.791,9.408-14.902,10.231-4.93.666-9.777-1.334-14.67-2.239-3.348-.618-6.769-.724-10.173-.825-3.817-.115-7.686-.225-11.401.652-3.718.875-7.328,2.867-9.34,6.113,3.133-1.221,6.688-1.187,10.008-.282-3.968,1.879-7.171,5.322-8.759,9.415,4.409-1.636,9.221-2.177,13.882-1.563-1.163,1.829-2.048,3.839-2.61,5.932,4.254-2.521,9.568-2.324,14.447-1.511,4.877.811,9.761,2.169,14.686,1.702,4.3-.406,8.336-2.177,12.274-3.954,6.805-3.074,13.743-6.344,18.918-11.725,5.213-5.419,8.227-12.555,12.745-18.562,5.576-7.415,13.525-13.25,17.04-21.839.559,1.217,1.32,2.978,2.66,4.056,2.364-9.799,7.557-18.9,14.787-25.928,4.225,3.499,8.099,7.01,11.823,10.674-.499-1.779-.996-3.558-1.495-5.338,17.622,13.322,36.703,24.715,56.793,33.906-14.103,1.479-24.234,17.296-38.403,17-4.411-.093-8.604-1.797-12.865-2.944-4.26-1.147-9.016-1.694-12.912.378-1.517.805-2.831,1.976-4.419,2.634-1.986.823-4.227.767-6.29,1.38-5.487,1.624-8.481,7.37-10.871,12.568,2.205-1.952,5.016-3.209,7.94-3.545-1.189,2.897-2.527,6.712-2.903,10.624,2.636-1.095,4.62-3.296,6.805-5.133,2.189-1.837,4.964-3.417,7.767-2.871-2.636,2.227-4.36,5.501-4.704,8.934,3.239-1.93,6.857-3.219,10.585-3.775,6.511-.966,13.147.306,19.723-.028,6.517-.332,12.944-2.272,18.557-5.6,4.3-2.549,8.103-5.879,12.463-8.314,8.475-4.732,18.427-5.781,27.89-7.938,5.016-1.143,10.845-3.58,11.592-8.672,7.624,4.074,15.596,6.461,23.666,6.817-12.93,6.099-20.709,19.789-33.594,23.067-6.006,1.529-12.318.549-18.495.048-6.179-.503-12.793-.407-18.026,2.915-1.662,1.056-3.125,2.404-4.809,3.427-2.813,1.71-6.117,2.433-9.032,3.962-2.914,1.531-5.592,4.336-5.382,7.62,1.909-2.294,5.064-3.481,8.008-3.006-2.04,2.716-3.421,6.418-3.469,10.149,3.386-3.738,7.861-6.473,12.734-7.779-3.125,2.833-5.121,6.875-5.475,11.076,12.342-7.056,28.272-2.881,41.606-7.809,9.139-3.38,16.169-10.684,24.24-16.143,8.942-6.048,19.223-9.847,28.366-15.582,5.63-3.535,10.805-7.791,15.356-12.638,1.946-2.072,3.871-4.475,4.016-7.314,5.105-1.252,9.489-2.326,13.302-4.537,3.813-2.211,7.026-5.644,8.405-9.829,1.082.451,1.105,5.694,1.105,5.694,13.807-13.749,22.876-32.171,25.354-51.496,17.759,13.362,34.29,27.393,52.964,38.085,18.672,10.692,39.711,17.962,61.23,18.04,14.604.054,29.739-3.499,40.96-12.849,8.342-6.948,14.044-16.733,17.185-27.125,2.696-8.928,3.583-18.547,1.419-27.62-1.408-5.902-4.074-11.461-7.479-16.483-9.608-14.163-25.383-23.98-42.333-26.344,12.773,7.875,24.759,17.214,31.964,29.882,7.205,12.67,8.91,29.071,1.771,41.775-7.582,13.489-23.747,20.493-39.22,20.596-15.471.099-30.385-5.678-44.202-12.64-27.407-13.809-53.133-33.719-66.258-61.459-3.064-6.475-5.392-13.268-7.892-19.982-6.903-18.535-15.386-36.443-24.694-53.896-17.92-33.604-43.938-61.806-76.295-78.745-36.946-19.34-80.176-24.053-121.711-20.318-14.966,1.346-30.522,3.67-44.661-1.423,1.062-2.724,2.533-3.809,4.119-4.69-4.912-.487-9.871-.499-14.783-.034,1.376-2.143,3.284-3.936,5.509-5.177-7.672-1.696-15.559-2.417-23.409-2.137.819-1.827,1.891-3.537,3.175-5.071-5.66-1.266-11.531-1.573-17.29-.905.362-9.284,1.628-17.851-.076-26.131-1.704-8.278-7.028-16.344-15.087-18.884-4.998-1.577-10.449-.885-15.481.578-8.109,2.362-15.63,6.712-21.717,12.565-5.437-3.115-10.348-4.68-15.38-5.419-.368-5.195-1.298-11.167-4.05-16.409-2.75-5.239-7.7-9.706-13.592-10.248-5.897-.541-11.582,2.948-15.242,7.604-3.658,4.654-5.662,10.364-7.604,15.956-16.547,2.744-32.427,6.201-46.926,13.135-15.169,7.254-28.306,18.063-41.276,28.763-6.129,5.058-12.258,10.113-18.386,15.169-1.716,1.416-3.487,2.903-4.405,4.926-1.64,3.612-.149,7.803,1.344,11.479,1.753,4.318,3.69,8.877,7.497,11.57,1.789,1.268,3.899,2.042,5.652,3.358,3.002,2.255,4.652,5.823,6.851,8.863,5.702,7.875,15.29,12.213,24.906,13.64,9.618,1.427,19.409.28,29.063-.867,6.449,1.272,11.606,3.92,16.936,6.056,5.332,2.133,11.063,3.781,17.602,3.231,22.012,11.66,38.53,33.224,44.055,57.512.567-1.366,1.133-2.732,1.7-4.097,1.511,8.61,4.904,16.883,9.873,24.073.242-3.342.485-6.682.728-10.024,1.813,6.851,4.881,13.37,9.004,19.133.215-1.318.431-2.636.646-3.956,12.395,12.813,14.829,32.218,14.23,50.035-.938,27.938-8,56.178-23.95,80.095Z" fill="#fff"/>
        <g clip-path="url(#clippath-1)">
          <path d="M639.4,148.343l-19.66-9.11-157.74-73.09-157.75,73.09-19.66,9.11-200,92.66c6.03,104.23,23.61,198.36,52.99,282.16l9.17,24.81c17.82,45.88,39.36,88.5,64.68,127.81l25.74,37.12c58.17,77.89,132.97,141.23,224.83,189.65,91.85-48.42,166.66-111.76,224.82-189.65l25.75-37.12c25.31-39.31,46.85-81.93,64.67-127.81l9.17-24.81c29.37-83.81,46.96-177.93,52.99-282.16l-200-92.66ZM462,854.713c-82.82-47.05-147.521-106.33-197.14-175.06l-24.43-36.54c-21.84-35.33-40.16-72.83-55.33-112.16l-12.45-34.79c-23.67-71.55-37.75-148.57-44.21-229.23l113.176-52.432,382.159,509.546c-43.919,50.08-97.371,94.074-161.775,130.666ZM751.34,496.163l-12.45,34.79c-15.17,39.33-33.49,76.83-55.33,112.16l-15.158,22.672L283.029,195.314l15.22-7.051,26.44-12.25,137.31-63.62,137.3,63.62,26.44,12.25,169.81,78.67c-6.46,80.66-20.54,157.68-44.21,229.23Z" fill="url(#linear-gradient-8)"/>
        </g>
      </g>
    </g>
  </g>
</svg>