<?xml version="1.0" encoding="UTF-8"?>
<svg xmlns="http://www.w3.org/2000/svg" version="1.1" viewBox="0 0 5000 5000">
  <!-- Generator: Adobe Illustrator 28.6.0, SVG Export Plug-In . SVG Version: 1.2.0 Build 709)  -->
  <g>
    <g id="katman_1">
      <path d="M2378.8,591.8l7.5-1.7c54.7-3,111.1-.7,166-.5,215.4,1.1,209.3,14.1,208.7,190.7l1.6,307.3c11.2,2.4,21.8,2.6,33.1,3,141.2,5.7,332.4,80.9,457.3,141.3,137.4,66.4,154.9,73.2,100.3,214.3l-46.2,126.6c-38.4,112.9-46.3,299-199.4,200.3l-72.7-43.6c-188.1-105.3-597.5-230.6-720.4,12.1-19.8,39.1-18.8,99.4-6.9,140.7,37.6,129.7,221.3,182,329.5,231.1,387.9,176.1,827.9,393.8,838.1,887.2,3.5,170.5-49.8,332-148.6,470.9-108.3,152.1-349.4,309.2-540.7,340.2-9.8,1.6-17.2,3.8-26.4,7.8l.2,472.7c-11.8,132.8-310,95.2-398.9,85.4-123.8-20.7-101.2-95.4-101.2-190.4,0-118.6,7.1-241.9-3.4-360-167-29.7-728.6-178.7-783.7-374-7.2-25.5,92.3-297.1,108.3-344.9,18.3-54.8,22.7-142.9,90.3-157.5,61.2-13.2,108.4,55.5,153.9,89.2,160.5,118.9,359.9,213.7,559.3,236.5,166.3,19.1,430.2-33.8,383.8-250.7-67-313.4-980.9-330.4-1153.1-975.8-124.1-465.1,210.9-844.3,647.8-957.3-4.8-79-12.4-320.2,1.6-396.6l1-5.3c11.2-62.9,50.8-89.4,113.2-99h0ZM2378.8,591.8"/>
    </g>
  </g>
</svg>