<?xml version="1.0" encoding="UTF-8"?>
<svg xmlns="http://www.w3.org/2000/svg" xmlns:xlink="http://www.w3.org/1999/xlink" version="1.1" viewBox="0 0 1000 1000">
  <defs>
    <style>
      .cls-1 {
        fill: none;
      }

      .cls-2 {
        fill: url(#linear-gradient-2);
      }

      .cls-2, .cls-3, .cls-4, .cls-5, .cls-6 {
        fill-rule: evenodd;
      }

      .cls-3 {
        fill: url(#linear-gradient-3);
      }

      .cls-4 {
        fill: url(#linear-gradient-6);
      }

      .cls-5, .cls-7 {
        fill: #fff;
      }

      .cls-8 {
        fill: url(#linear-gradient-8);
      }

      .cls-9 {
        fill: url(#linear-gradient-7);
      }

      .cls-10 {
        fill: url(#linear-gradient-5);
      }

      .cls-11 {
        fill: url(#linear-gradient-4);
      }

      .cls-12 {
        fill: url(#linear-gradient);
      }

      .cls-13 {
        fill: #606060;
      }

      .cls-14 {
        clip-path: url(#clippath-1);
      }

      .cls-15, .cls-6 {
        fill: #031737;
      }

      .cls-16 {
        font-family: MyriadPro-Regular, 'Myriad Pro';
        font-size: 195.8px;
      }

      .cls-16, .cls-17 {
        isolation: isolate;
      }

      .cls-17, .cls-18 {
        display: none;
      }

      .cls-19 {
        clip-path: url(#clippath);
      }
    </style>
    <linearGradient id="linear-gradient" x1="-1843.9" y1="1323.2" x2="-1022" y2="1323.2" gradientTransform="translate(0 997.9) scale(1 -1)" gradientUnits="userSpaceOnUse">
      <stop offset="0" stop-color="#4f0606"/>
      <stop offset="1" stop-color="#a52929"/>
    </linearGradient>
    <linearGradient id="linear-gradient-2" x1="-1708.4" y1="1499.8" x2="-1130.3" y2="1499.8" gradientTransform="translate(0 997.9) scale(1 -1)" gradientUnits="userSpaceOnUse">
      <stop offset="0" stop-color="#4f0606"/>
      <stop offset="1" stop-color="#a52929"/>
    </linearGradient>
    <linearGradient id="linear-gradient-3" x1="-2638.2" y1="-588.2" x2="-2060.1" y2="-588.2" gradientTransform="translate(0 997.9) scale(1 -1)" gradientUnits="userSpaceOnUse">
      <stop offset="0" stop-color="#4f0606"/>
      <stop offset="1" stop-color="#a52929"/>
    </linearGradient>
    <linearGradient id="linear-gradient-4" x1="-2622.2" y1="-757.8" x2="-2016.1" y2="-757.8" gradientTransform="translate(0 997.9) scale(1 -1)" gradientUnits="userSpaceOnUse">
      <stop offset="0" stop-color="#4f0606"/>
      <stop offset="1" stop-color="#a52929"/>
    </linearGradient>
    <clipPath id="clippath">
      <path class="cls-1" d="M856.4,2237.4v-.2c0-2.8-.4-5.1-1.3-7.1-.9-2-2.2-3.7-3.9-5.2-1.7-1.5-3.8-2.7-6.3-3.8-2.5-1.1-5.3-2-8.5-2.8-2.7-.7-4.9-1.4-6.7-1.9-1.8-.5-3.2-1.1-4.2-1.7-1-.6-1.7-1.3-2.1-2-.4-.8-.6-1.6-.6-2.7v-.2c0-1.6.7-2.9,2-3.9,1.3-1.1,3.4-1.6,6.1-1.6s5.4.6,8.1,1.7c2.7,1.1,5.5,2.6,8.3,4.5l7.2-10.4c-3.2-2.6-6.8-4.6-10.7-5.9-3.9-1.4-8.1-2.1-12.7-2.1s-6.2.5-8.9,1.4c-2.7.9-5,2.2-6.9,3.9-1.9,1.7-3.4,3.7-4.5,6-1.1,2.3-1.6,4.9-1.6,7.8v.2c0,3.1.5,5.7,1.5,7.8,1,2.1,2.4,3.9,4.2,5.3,1.8,1.4,4,2.6,6.6,3.6,2.6,1,5.5,1.8,8.7,2.6,2.6.7,4.8,1.3,6.5,1.9,1.7.6,2.9,1.2,3.9,1.8.9.6,1.6,1.2,1.9,1.9.3.7.5,1.5.5,2.4v.2c0,1.9-.8,3.3-2.4,4.4-1.6,1.1-3.8,1.6-6.7,1.6s-6.9-.7-9.9-2.1c-3-1.4-6-3.2-8.9-5.6l-8.2,9.8c3.8,3.4,8,6,12.6,7.6,4.6,1.7,9.3,2.5,14.1,2.5s6.5-.4,9.3-1.3c2.8-.9,5.2-2.1,7.3-3.8,2-1.6,3.6-3.7,4.7-6.1,1.1-2.4,1.7-5.2,1.7-8.3M769.4,2256.1v-63h-13.7v38.8l-29.5-38.8h-12.8v63h13.7v-40.1l30.5,40.1h11.8ZM660.2,2224.7c0,2.7-.5,5.2-1.4,7.6-.9,2.4-2.2,4.5-3.9,6.3-1.7,1.8-3.6,3.2-6,4.2-2.3,1-4.9,1.5-7.7,1.5s-5.4-.5-7.7-1.6-4.3-2.5-6-4.3c-1.7-1.8-3-3.9-4-6.3-.9-2.4-1.4-5-1.4-7.7v-.2c0-2.7.5-5.2,1.4-7.6.9-2.4,2.2-4.5,3.9-6.3,1.7-1.8,3.6-3.2,5.9-4.2,2.3-1,4.9-1.5,7.7-1.5s5.3.5,7.7,1.6c2.3,1.1,4.4,2.5,6.1,4.3,1.7,1.8,3,3.9,4,6.3s1.4,5,1.4,7.7v.2h0ZM674.7,2224.6v-.2c0-4.5-.8-8.7-2.5-12.6-1.7-3.9-4-7.4-6.9-10.3-3-2.9-6.5-5.2-10.6-6.9-4.1-1.7-8.6-2.6-13.4-2.6s-9.3.9-13.5,2.6c-4.1,1.7-7.7,4.1-10.6,7s-5.3,6.4-7,10.4c-1.7,3.9-2.5,8.1-2.5,12.6v.2c0,4.5.8,8.7,2.5,12.6,1.7,3.9,4,7.4,6.9,10.3,3,2.9,6.5,5.2,10.6,6.9,4.1,1.7,8.6,2.6,13.4,2.6s9.3-.9,13.5-2.6c4.1-1.7,7.7-4.1,10.6-7s5.3-6.4,7-10.4c1.7-3.9,2.5-8.1,2.5-12.6h0ZM568.4,2256.1v-63h-13.9v63h13.9ZM516.9,2205.8v-12.8h-52.2v12.8h19.2v50.2h13.9v-50.2h19.2,0ZM428.7,2228.6v-35.6h-13.9v36.1c0,5-1.2,8.8-3.6,11.3-2.4,2.5-5.7,3.8-10,3.8s-7.6-1.3-10-3.9c-2.4-2.6-3.6-6.5-3.6-11.7v-35.7h-13.9v36c0,9.3,2.4,16.3,7.3,21,4.9,4.7,11.5,7,20,7s8-.6,11.4-1.8c3.4-1.2,6.3-2.9,8.7-5.3s4.2-5.3,5.5-8.9c1.3-3.5,1.9-7.7,1.9-12.5h0ZM338,2256.1v-12.5h-31.4v-50.5h-13.9v63h45.3,0ZM239.5,2224.7c0,2.7-.5,5.2-1.4,7.6-.9,2.4-2.2,4.5-3.9,6.3-1.6,1.8-3.6,3.2-6,4.2-2.3,1-4.9,1.5-7.7,1.5s-5.4-.5-7.7-1.6-4.3-2.5-6-4.3c-1.7-1.8-3-3.9-4-6.3-.9-2.4-1.4-5-1.4-7.7v-.2c0-2.7.5-5.2,1.4-7.6.9-2.4,2.2-4.5,3.9-6.3,1.6-1.8,3.6-3.2,5.9-4.2,2.3-1,4.9-1.5,7.7-1.5s5.3.5,7.7,1.6c2.3,1.1,4.4,2.5,6.1,4.3,1.7,1.8,3,3.9,4,6.3s1.4,5,1.4,7.7v.2h0ZM254,2224.6v-.2c0-4.5-.8-8.7-2.5-12.6-1.6-3.9-4-7.4-6.9-10.3-3-2.9-6.5-5.2-10.6-6.9-4.1-1.7-8.6-2.6-13.4-2.6s-9.3.9-13.5,2.6c-4.1,1.7-7.7,4.1-10.6,7s-5.3,6.4-7,10.4c-1.7,3.9-2.5,8.1-2.5,12.6v.2c0,4.5.8,8.7,2.5,12.6,1.6,3.9,4,7.4,6.9,10.3,3,2.9,6.5,5.2,10.6,6.9s8.6,2.6,13.4,2.6,9.3-.9,13.5-2.6c4.1-1.7,7.7-4.1,10.6-7,3-3,5.3-6.4,7-10.4,1.7-3.9,2.5-8.1,2.5-12.6h0ZM151.4,2237.4v-.2c0-2.8-.4-5.1-1.3-7.1-.9-2-2.2-3.7-3.9-5.2-1.7-1.5-3.8-2.7-6.3-3.8-2.5-1.1-5.3-2-8.5-2.8-2.7-.7-4.9-1.4-6.7-1.9-1.8-.5-3.2-1.1-4.2-1.7-1-.6-1.7-1.3-2.1-2-.4-.8-.6-1.6-.6-2.7v-.2c0-1.6.7-2.9,2-3.9,1.4-1.1,3.4-1.6,6.1-1.6s5.4.6,8.1,1.7c2.7,1.1,5.5,2.6,8.3,4.5l7.2-10.4c-3.2-2.6-6.8-4.6-10.7-5.9-3.9-1.4-8.1-2.1-12.7-2.1s-6.2.5-8.9,1.4c-2.7.9-5,2.2-6.9,3.9-1.9,1.7-3.4,3.7-4.5,6-1.1,2.3-1.6,4.9-1.6,7.8v.2c0,3.1.5,5.7,1.5,7.8,1,2.1,2.4,3.9,4.2,5.3,1.8,1.4,4,2.6,6.6,3.6,2.6,1,5.5,1.8,8.7,2.6,2.6.7,4.8,1.3,6.5,1.9,1.6.6,2.9,1.2,3.9,1.8.9.6,1.6,1.2,1.9,1.9.3.7.5,1.5.5,2.4v.2c0,1.9-.8,3.3-2.4,4.4-1.6,1.1-3.8,1.6-6.7,1.6s-6.9-.7-9.9-2.1c-3-1.4-6-3.2-8.9-5.6l-8.2,9.8c3.8,3.4,8,6,12.6,7.6,4.6,1.7,9.3,2.5,14.1,2.5s6.5-.4,9.3-1.3c2.8-.9,5.2-2.1,7.3-3.8s3.6-3.7,4.7-6.1c1.1-2.4,1.7-5.2,1.7-8.3h0Z"/>
    </clipPath>
    <linearGradient id="linear-gradient-5" x1="479" y1="-1203.8" x2="479" y2="-1254.1" gradientTransform="translate(0 997.9) scale(1 -1)" gradientUnits="userSpaceOnUse">
      <stop offset="0" stop-color="#064f32"/>
      <stop offset="1" stop-color="#29a529"/>
    </linearGradient>
    <linearGradient id="linear-gradient-6" x1="-4736.2" y1="-1864.2" x2="-3981.4" y2="-1864.2" gradientTransform="translate(0 997.9) scale(1 -1)" gradientUnits="userSpaceOnUse">
      <stop offset="0" stop-color="#4f0606"/>
      <stop offset="1" stop-color="#a52929"/>
    </linearGradient>
    <linearGradient id="linear-gradient-7" x1="136.2" y1="497.9" x2="891" y2="497.9" gradientTransform="translate(0 997.9) scale(1 -1)" gradientUnits="userSpaceOnUse">
      <stop offset="0" stop-color="#4f0606"/>
      <stop offset="1" stop-color="#a52929"/>
    </linearGradient>
    <clipPath id="clippath-1">
      <path class="cls-1" d="M134.2,79.8v840.4h758.8V79.8H134.2ZM814,601.6c-4.1-1.9-8.2-4-12.1-6.3-8.9-5.1-17.3-10.9-25.5-17.1,3-6.9,6-13.8,8.8-20.8,11.2,9.8,24,18,37.3,24.7-2.7,6.5-5.6,13-8.4,19.4h0Z"/>
    </clipPath>
    <linearGradient id="linear-gradient-8" x1="136.2" y1="497.9" x2="891" y2="497.9" gradientTransform="translate(0 997.9) scale(1 -1)" gradientUnits="userSpaceOnUse">
      <stop offset="0" stop-color="#4f0606"/>
      <stop offset="1" stop-color="#a52929"/>
    </linearGradient>
  </defs>
  <!-- Generator: Adobe Illustrator 28.6.0, SVG Export Plug-In . SVG Version: 1.2.0 Build 709)  -->
  <g>
    <g id="Layer_1">
      <g>
        <g id="Layer_1-2" data-name="Layer_1" class="cls-18">
          <g>
            <g>
              <path class="cls-5" d="M-1601.7-167.6c-1.9,3.4-3.7,6.9-5.6,10.5-2.5,4.9-5.1,9.9-8,14.8-2.4,4.1-5.5,8.7-9.8,12.5,1.2,1.4,2.3,2.8,3.5,4.2l6.3-10.2c3.8-6.2,10.4-10.6,18.4-12.5,3.8-.9,7.4-1.1,10.2-1.2-5.1-6-10.1-12.1-14.9-18.3h0Z"/>
              <path class="cls-5" d="M-1773.5-533.7c8.7-4.1,17.6-7.3,26.5-9.7-2.4-18.6-4.4-37.5-5.9-56.6l169.8-78.7,26.4-12.2,137.3-63.6,137.3,63.6,26.4,12.2,169.8,78.7c-6.5,80.7-20.5,157.7-44.2,229.2l-12.4,34.8c-12.4,32.2-26.9,63.1-43.7,92.6,9,9.6,20,18.6,33,26.8,18.7-32.1,35-66.2,49.1-102.4l9.2-24.8c29.4-83.8,47-177.9,53-282.2l-200-92.7-19.7-9.1-157.7-73.1-157.8,73.1-19.7,9.1-200,92.7c2,34.3,5.2,67.5,9.7,99.6,4.3-2.7,8.8-5.1,13.5-7.4h0Z"/>
              <path class="cls-5" d="M-1213.8-199.9l-8.4,12.6c-3.9,5.4-7.9,10.7-12,16-2.5,3.6-5.2,7.1-8.2,10.3-46.6,57.6-105,107.8-177,148.7-47.2-26.8-88.6-57.6-124.6-91.9-3.4,1.3-7.3,2.4-11.4,2.8-1.1.1-2.3.2-3.6.2-4.8,0-9.2-.8-13.1-1.6-1.2-.2-2.4-.5-3.6-.7-1.9-.3-3.5-.5-4.9-.5s-3,.2-3.8.7l-11.4,6.7c49.5,52.1,108.2,96.2,176.3,132.1,91.8-48.4,166.7-111.8,224.8-189.6l14.8-21.4c-11.9-7.6-23.1-16.1-34.1-24.5h0Z"/>
              <path class="cls-5" d="M-1653.4-167.4c8.1-14.7,13.9-31.5,17.1-49.6l-4.6-6.9c-21.8-35.3-40.2-72.8-55.3-112.2l-12.4-34.8c-1.4-4.3-2.8-8.6-4.1-12.9-1.6-1.1-3.3-2.1-5-3.1h0c-9,0-16.5-2.5-22-4.8-1.6-.6-3.1-1.3-4.6-1.9-3.8-1.6-7.4-3.2-11.3-4.1-1.5.2-3.1.4-4.6.5,5.1,18.2,10.6,36,16.7,53.3l9.2,24.8c17.8,45.9,39.4,88.5,64.7,127.8l16.5,23.8h0Z"/>
            </g>
            <path class="cls-12" d="M-1649.3-150.9c-5.3.1-10.6-.8-15.6-2.7-2.8-1.1-5.5-2.4-8.5-3-2.9-.6-6.3-.3-8.6,1.6-.8.7-1.5,1.6-2.5,2-.9.4-1.9.3-2.8.3-3.7,0-7.5.9-10.8,2.7,2.9,0,5.7,1.2,7.7,3.3-4.1.4-7.9,3.3-9.4,7.2,3.5-1.2,7.3-1.4,10.9-.7-2.2,2.5-4,5.4-5.2,8.5,7.1-2,14.6-2.9,22-2.5,6.4.3,12.7,1.5,19,1.6,6.4.1,13-.9,18.2-4.6,4-2.8,6.8-6.9,9.2-11.1,8.8-14.8,14.9-31.6,26.9-43.9,4-4.1,8.6-7.5,12.7-11.5,11.1-10.5,19.2-24.3,22.9-39.2,11.4,3,21.7,6.8,31.5,11.5,4.2,2,8.5,4.4,11.2,8.2,3.2,4.5,3.8,10.4,3.3,16-1,11.6-6,22.5-7.7,33.9-1,6.4-.9,13.2-3.7,19.1-1.5,3.2-3.7,6-6,8.6-4.7,5.5-10.3,11-17.4,11.9-5.7.8-11.4-1.6-17.1-2.6-3.9-.7-7.9-.8-11.9-1-4.5-.1-9-.3-13.3.8-4.3,1-8.5,3.3-10.9,7.1,3.7-1.4,7.8-1.4,11.7-.3-4.6,2.2-8.4,6.2-10.2,11,5.1-1.9,10.8-2.5,16.2-1.8-1.4,2.1-2.4,4.5-3,6.9,5-2.9,11.2-2.7,16.8-1.8,5.7.9,11.4,2.5,17.1,2,5-.5,9.7-2.5,14.3-4.6,7.9-3.6,16-7.4,22.1-13.7,6.1-6.3,9.6-14.6,14.9-21.6,6.5-8.6,15.8-15.4,19.9-25.5.7,1.4,1.5,3.5,3.1,4.7,2.8-11.4,8.8-22,17.2-30.2,4.9,4.1,9.4,8.2,13.8,12.4-.6-2.1-1.2-4.1-1.7-6.2,20.5,15.5,42.8,28.8,66.2,39.5-16.4,1.7-28.3,20.2-44.8,19.8-5.1-.1-10-2.1-15-3.4-5-1.3-10.5-2-15.1.4-1.8.9-3.3,2.3-5.2,3.1-2.3,1-4.9.9-7.3,1.6-6.4,1.9-9.9,8.6-12.7,14.7,2.6-2.3,5.8-3.7,9.3-4.1-1.4,3.4-2.9,7.8-3.4,12.4,3.1-1.3,5.4-3.8,7.9-6,2.6-2.1,5.8-4,9.1-3.3-3.1,2.6-5.1,6.4-5.5,10.4,3.8-2.3,8-3.8,12.3-4.4,7.6-1.1,15.3.4,23,0,7.6-.4,15.1-2.7,21.6-6.5,5-3,9.4-6.9,14.5-9.7,9.9-5.5,21.5-6.7,32.5-9.3,5.8-1.3,12.6-4.2,13.5-10.1,8.9,4.8,18.2,7.5,27.6,7.9-15.1,7.1-24.1,23.1-39.2,26.9-7,1.8-14.4.6-21.6,0-7.2-.6-14.9-.5-21,3.4-1.9,1.2-3.6,2.8-5.6,4-3.3,2-7.1,2.8-10.5,4.6-3.4,1.8-6.5,5.1-6.3,8.9,2.2-2.7,5.9-4.1,9.3-3.5-2.4,3.2-4,7.5-4,11.8,3.9-4.4,9.2-7.5,14.8-9.1-3.6,3.3-6,8-6.4,12.9,14.4-8.2,33-3.4,48.5-9.1,10.7-3.9,18.9-12.5,28.3-18.8,10.4-7.1,22.4-11.5,33.1-18.2,6.6-4.1,12.6-9.1,17.9-14.7,2.3-2.4,4.5-5.2,4.7-8.5,6-1.5,11.1-2.7,15.5-5.3,4.4-2.6,8.2-6.6,9.8-11.5,1.3.5,1.3,6.6,1.3,6.6,16.1-16,26.7-37.5,29.6-60,20.7,15.6,40,31.9,61.8,44.4,21.8,12.5,46.3,20.9,71.4,21,17,0,34.7-4.1,47.8-15,9.7-8.1,16.4-19.5,20-31.6,3.1-10.4,4.2-21.6,1.7-32.2-1.6-6.9-4.8-13.4-8.7-19.2-11.2-16.5-29.6-28-49.4-30.7,14.9,9.2,28.9,20.1,37.3,34.8,8.4,14.8,10.4,33.9,2.1,48.7-8.8,15.7-27.7,23.9-45.7,24-18,.1-35.4-6.6-51.5-14.7-32-16.1-62-39.3-77.3-71.7-3.6-7.5-6.3-15.5-9.2-23.3-8-21.6-17.9-42.5-28.8-62.8-20.9-39.2-51.2-72.1-89-91.8-43.1-22.6-93.5-28-141.9-23.7-17.5,1.6-35.6,4.3-52.1-1.7,1.2-3.2,3-4.4,4.8-5.5-5.7-.6-11.5-.6-17.2,0,1.6-2.5,3.8-4.6,6.4-6-8.9-2-18.1-2.8-27.3-2.5,1-2.1,2.2-4.1,3.7-5.9-6.6-1.5-13.4-1.8-20.2-1.1.4-10.8,1.9-20.8,0-30.5-2-9.7-8.2-19.1-17.6-22-5.8-1.8-12.2-1-18.1.7-9.5,2.8-18.2,7.8-25.3,14.7-6.3-3.6-12.1-5.5-17.9-6.3-.4-6.1-1.5-13-4.7-19.1-3.2-6.1-9-11.3-15.8-12-6.9-.6-13.5,3.4-17.8,8.9-4.3,5.4-6.6,12.1-8.9,18.6-19.3,3.2-37.8,7.2-54.7,15.3-17.7,8.5-33,21.1-48.1,33.5-7.1,5.9-14.3,11.8-21.4,17.7-2,1.7-4.1,3.4-5.1,5.7-1.9,4.2-.2,9.1,1.6,13.4,2,5,4.3,10.4,8.7,13.5,2.1,1.5,4.5,2.4,6.6,3.9,3.5,2.6,5.4,6.8,8,10.3,6.6,9.2,17.8,14.2,29,15.9,11.2,1.7,22.6.3,33.9-1,7.5,1.5,13.5,4.6,19.7,7.1,6.2,2.5,12.9,4.4,20.5,3.8,25.7,13.6,44.9,38.7,51.4,67.1.7-1.6,1.3-3.2,2-4.8,1.8,10,5.7,19.7,11.5,28.1.3-3.9.6-7.8.8-11.7,2.1,8,5.7,15.6,10.5,22.3.2-1.5.5-3.1.8-4.6,14.5,14.9,17.3,37.6,16.6,58.3-1.1,32.6-9.3,65.5-27.9,93.4h0Z"/>
            <path class="cls-2" d="M-1688.4-577.7c.8,0,1.7,0,2.5.1,3.2.3,6.3,1.2,9.3,2.5l145.8-67.6,27.3-12.6,84.2-39,84.2,39,27.3,12.6,157.6,73c-6.9,59.1-18.5,116-36,169.7l-15,41.5c-6.2,15.7-13.1,31.1-20.5,46.2,2.6,6.1,5,12.1,7.2,18,.6,1.5,1.1,3,1.7,4.6,0,.2.2.5.3.7,11.8-22.4,22.2-45.5,31.3-69.3l13.6-38.5c18.7-58.1,30.7-119.8,37.4-184.1l-162.5-75.3-29.5-13.7-97.1-45-97.1,45-29.5,13.7-162.5,75.3c.3,3.3.7,6.6,1.1,9.9,5.7-4.3,12.3-6.7,18.9-6.7h0Z"/>
          </g>
          <path class="cls-6" d="M-2171.7,1353.2l-19.7-9.1-157.7-73.1-157.8,73.1-19.7,9.1-200,92.7c6,104.2,23.6,198.4,53,282.2l9.2,24.8c17.8,45.9,39.4,88.5,64.7,127.8l25.7,37.1c58.2,77.9,133,141.2,224.8,189.7,91.9-48.4,166.7-111.8,224.8-189.7l25.8-37.1c25.3-39.3,46.9-81.9,64.7-127.8l9.2-24.8c29.4-83.8,47-177.9,53-282.2l-200-92.7h0ZM-2059.8,1701l-12.4,34.8c-15.2,39.3-33.5,76.8-55.3,112.2l-24.4,36.5c-49.6,68.7-114.3,128-197.1,175.1-82.8-47.1-147.5-106.3-197.1-175.1l-24.4-36.5c-21.8-35.3-40.2-72.8-55.3-112.2l-12.4-34.8c-23.7-71.6-37.8-148.6-44.2-229.2l169.8-78.7,26.4-12.2,137.3-63.6,137.3,63.6,26.4,12.2,169.8,78.7c-6.5,80.7-20.5,157.7-44.2,229.2h0Z"/>
          <path class="cls-3" d="M-2060.1,1490.9c-6.8,64.2-18.8,126-37.4,184.1l-13.6,38.5c-13.7,35.6-30.1,69.6-49.7,101.8-4.2-2.9-8.3-5.8-12.4-8.5.2-2.7.4-5.3.5-8,16-27.2,29.8-55.7,41.6-85.3l15-41.6c17.5-53.7,29.1-110.6,36-169.7l-157.6-73-27.3-12.6-84.2-39-84.1,39-27.3,12.6-157.6,73c6.9,59.1,18.5,116,36,169.7l15,41.6c11.8,29.7,25.6,58.2,41.6,85.3.1,2.7.3,5.3.5,8-4,2.7-8.2,5.6-12.4,8.5-19.6-32.2-36-66.2-49.7-101.8l-13.6-38.5c-18.6-58.1-30.7-119.8-37.4-184.1l162.5-75.3,29.5-13.7,97.1-45,97.1,45,29.5,13.7,162.5,75.3h0Z"/>
          <path class="cls-7" d="M-2321,1944.1l-2.3,2.7-1.4-22.3c-.1-2.3.3-4.5,1.2-6.5-1.4,0-2.7,0-4-.2-1.6,0-3.1-.2-4.6-.2s-2.5,0-3.5.2c-2,.3-4.1,1-5.9,2.1l-15.2,9,.7-7.3-8.9,3.7,1.4-14.8c.2-1.8.5-3.6,1-5.6l-4.6-3.4c2.1-4.5,6-13,14.9-15.6,1.3-.4,2.6-.6,3.5-.7.3,0,.8-.1,1-.2.2-.1.5-.3.7-.4.6-.4,1.4-.9,2.4-1.4,2.8-1.5,6-2.2,9.5-2.2s5.2.4,8.1,1.2c1.1.3,2.1.6,3.1.9,2.2.7,4.3,1.3,5.9,1.3h.1c3.5,0,7.4-2.7,12-5.7.1,0,.2-.1.3-.2-4.5-2.4-8.9-5-13.3-7.7l3.7,13.2-23.8-23.5c-1-1-1.9-1.9-2.9-2.8-2.3,3.6-4.1,7.6-5.1,11.7l-3.3,13.6-6.3-5.1c-1.3,1.5-2.6,2.9-3.9,4.3-1.8,2-3.6,3.8-5,5.7-1.3,1.7-2.5,3.7-3.8,5.8-2.1,3.5-4.5,7.5-7.9,11-5.8,6.1-13.5,9.5-19,12-3.4,1.5-8.1,3.7-13.4,4.2-.8,0-1.7.1-2.6.1-3.5,0-6.8-.6-9.6-1.2-.9-.2-1.8-.3-2.7-.5-1.4-.2-2.6-.3-3.6-.3s-2.2.2-2.8.5l-18.8,11.1,3.4-12.6-14.3,5.3,3.6-9.3-10.9,4.2,14-22.7c2.8-4.6,7.6-7.8,13.6-9.2,3.3-.8,6.4-.9,8.5-.9s2.5,0,3.6,0c3.1,0,6.5.2,10.1.9,1.5.3,2.9.6,4.2,1,1.9.5,3.7.9,5,.9s.4,0,.6,0c2.4-.3,5.3-3.4,7.2-5.7,1.2-1.4,2.5-2.9,3.1-4.4.9-1.9,1.2-4.6,1.5-7.5.1-1.3.3-2.7.5-4.1.7-4.4,1.8-8.5,2.9-12.4,1.2-4.2,2.3-8.2,2.7-12.1.2-2.7,0-4.8-.8-5.8-.9-1.3-3.6-2.6-4.9-3.2-4.4-2.1-8.9-3.9-13.6-5.5-3.7,9.2-9.4,17.6-16.5,24.3-1.4,1.4-2.9,2.6-4.3,3.8-1.7,1.5-3.4,2.9-4.8,4.4-5.2,5.3-8.8,12.3-12.6,19.7-1.9,3.6-3.8,7.3-5.9,10.9-2.2,3.7-5,7.8-9.3,10.9-4.7,3.4-10.7,5.1-17.9,5.1s-.6,0-.9,0c-3,0-5.8-.4-8.5-.7-2-.2-4-.4-5.8-.5-.7,0-1.3,0-2,0-3.9,0-7.7.5-11.4,1.6l-17.4,4.9,2.9-7.3-7.4,2.4,7-17.6c1.3-3.3,3.6-6.1,6.5-8l-1.1-4.3c3.3-1.8,7.1-2.9,10.9-3.1,2.6-2,5.9-3.1,9.5-3.1s2.6.1,3.8.4c2.4.5,4.4,1.3,6,2,.5.2,1,.4,1.5.6,1.2.4,2.5.8,3.7,1,10-16.8,15.6-37.4,16.4-59.9.3-8.2-.3-15.1-1.7-21l-3.2-4.4-.3,4.2-14.4-20.8c-.5-.7-.9-1.4-1.4-2.1l-3.8,9-6.2-27.2c-4-17.7-15.7-33.4-31.3-42.4h0c-6.6,0-12.2-1.9-16.3-3.5-1.2-.5-2.3-.9-3.4-1.4-2.8-1.2-5.5-2.3-8.3-3-5.1.6-10.7,1.2-16.3,1.2s-6.6-.2-9.6-.7c-11.7-1.7-21.4-7.2-27.3-15.3-.7-1-1.3-1.9-1.8-2.8-.8-1.2-1.6-2.6-2.2-3-.2-.2-.8-.5-1.4-.8-.9-.5-2.1-1.1-3.3-2-5.5-3.9-7.9-9.9-9.5-13.9-1.3-3.3-4.1-10.1-1-16.9,1.7-3.7,4.4-5.9,6.2-7.4l15.8-13c11.4-9.4,23.2-19.2,37.3-25.9,12.2-5.9,25.2-8.9,37.6-11.2,1.5-3.8,3.3-7.7,6.2-11.3,4.9-6.3,12-10,19.1-10s1.2,0,1.9,0c7.7.7,14.7,5.8,18.8,13.5,1.7,3.2,2.9,6.8,3.7,11,1.3.4,2.6.9,3.9,1.4,5.2-4,11.2-7,17.5-8.8,3.8-1.1,7.2-1.6,10.5-1.6s5.5.4,8,1.2c9.4,3,16.7,11.8,19,22.9,1.1,5.2,1,10.3.8,15.2,2.5.2,5,.6,7.4,1.1l14.3,3.2-1.7,2.1c1.6.3,3.2.6,4.9.9l22.9,5.1-1.3.7,13.7,1.4-6.2,3.5c2.2-.2,4.4-.4,6.7-.6,1.5-.1,2.9-.3,4.4-.4,7.7-.7,15.5-1.1,23-1.1,32.8,0,61.9,6.6,86.6,19.5,28.4,14.8,52.3,39.5,69.3,71.4,9.1,17,16.2,32.5,21.7,47.4.4,1.1.8,2.2,1.2,3.4,1.7,4.6,3.3,9,5.3,13.1,9.1,19.2,26.9,35.6,52.9,48.7,9.2,4.6,21.3,9.9,33.7,9.9h.3c11.4,0,21.6-5.2,26-13.2,4.2-7.5,3.6-18.2-1.5-27.2-4.5-7.9-12.1-14.9-24.4-22.5l5.9-16.4c17,2.4,32.9,12.3,42.5,26.5,3.7,5.5,6.3,11.3,7.7,17.1,2.1,8.7,1.6,18.6-1.4,28.4-3.4,11.3-9.5,20.8-17.6,27.6-13,10.8-29.3,13.1-40.6,13.1h-.3c-18.6,0-37.8-5.7-57-16.7-12.6-7.2-24.2-16.2-35.5-24.9-4.1,13.2-11.4,25.3-21.2,35l-15.1,15v-7.7c-1.3.5-2.7.9-4,1.3-1.1,1.9-2.5,3.6-3.8,4.9-4.4,4.7-9.5,8.9-15,12.3-4,2.5-8.1,4.6-12.1,6.5-4.3,2.2-8.4,4.2-12.1,6.7-2,1.3-4,2.9-6,4.5-4.7,3.7-10.1,7.9-16.7,10.3-6.4,2.4-13,2.7-18.8,3.1-6.2.4-11.6.7-15.6,3l-14.7,8.4v-1.4c.1,0-5.2,5.8-5.2,5.8v-9.4c.1,0,.1,0,.1,0ZM-2267.8,1899c-1.9.4-3.7.8-5.5,1.1-.2,0-.4,0-.6.1,1.5,0,2.8-.2,3.8-.4.8-.2,1.5-.5,2.3-.8h0Z"/>
          <path class="cls-11" d="M-2478.8,1884.4c-3.9,0-7.9-.6-11.5-2-2.1-.8-4.1-1.8-6.3-2.2-2.2-.4-4.6-.2-6.3,1.2-.6.5-1.1,1.2-1.8,1.5-.7.3-1.4.2-2.1.2-2.8,0-5.5.7-8,2,2.1,0,4.2.9,5.6,2.4-3.1.3-5.8,2.5-7,5.3,2.6-.8,5.4-1,8.1-.5-1.6,1.8-2.9,4-3.8,6.2,5.3-1.5,10.8-2.1,16.2-1.9,4.7.2,9.3,1.1,14,1.2,4.7,0,9.6-.7,13.4-3.4,2.9-2.1,5-5.1,6.8-8.2,6.5-10.9,11-23.3,19.9-32.4,2.9-3,6.3-5.6,9.4-8.5,8.2-7.8,14.1-17.9,16.9-28.9,8.4,2.2,16,5,23.2,8.5,3.1,1.5,6.3,3.2,8.3,6,2.4,3.3,2.8,7.7,2.4,11.8-.8,8.5-4.4,16.6-5.6,25-.7,4.8-.7,9.7-2.7,14.1-1.1,2.4-2.7,4.4-4.4,6.4-3.4,4-7.6,8.1-12.8,8.8-4.2.6-8.4-1.1-12.6-1.9-2.9-.5-5.8-.6-8.7-.7-3.3,0-6.6-.2-9.8.6-3.2.8-6.3,2.5-8,5.3,2.7-1.1,5.8-1,8.6-.2-3.4,1.6-6.2,4.6-7.5,8.1,3.8-1.4,7.9-1.9,11.9-1.3-1,1.6-1.8,3.3-2.2,5.1,3.7-2.2,8.2-2,12.4-1.3,4.2.7,8.4,1.9,12.6,1.5,3.7-.3,7.2-1.9,10.6-3.4,5.9-2.6,11.8-5.5,16.3-10.1,4.5-4.7,7.1-10.8,11-16,4.8-6.4,11.6-11.4,14.7-18.8.5,1,1.1,2.6,2.3,3.5,2-8.4,6.5-16.3,12.7-22.3,3.6,3,7,6,10.2,9.2-.4-1.5-.9-3.1-1.3-4.6,15.2,11.5,31.6,21.3,48.8,29.2-12.1,1.3-20.8,14.9-33,14.6-3.8,0-7.4-1.5-11.1-2.5-3.7-1-7.8-1.5-11.1.3-1.3.7-2.4,1.7-3.8,2.3-1.7.7-3.6.7-5.4,1.2-4.7,1.4-7.3,6.3-9.3,10.8,1.9-1.7,4.3-2.8,6.8-3-1,2.5-2.2,5.8-2.5,9.1,2.3-.9,4-2.8,5.9-4.4,1.9-1.6,4.3-2.9,6.7-2.5-2.3,1.9-3.7,4.7-4,7.7,2.8-1.7,5.9-2.8,9.1-3.2,5.6-.8,11.3.3,17,0,5.6-.3,11.1-2,16-4.8,3.7-2.2,7-5.1,10.7-7.2,7.3-4.1,15.8-5,24-6.8,4.3-1,9.3-3.1,10-7.5,6.6,3.5,13.4,5.6,20.4,5.9-11.1,5.2-17.8,17-28.9,19.8-5.2,1.3-10.6.5-15.9,0-5.3-.4-11-.3-15.5,2.5-1.4.9-2.7,2.1-4.1,2.9-2.4,1.5-5.3,2.1-7.8,3.4-2.5,1.3-4.8,3.7-4.6,6.6,1.6-2,4.4-3,6.9-2.6-1.8,2.3-2.9,5.5-3,8.7,2.9-3.2,6.8-5.6,11-6.7-2.7,2.4-4.4,5.9-4.7,9.5,10.6-6.1,24.3-2.5,35.8-6.7,7.9-2.9,13.9-9.2,20.8-13.9,7.7-5.2,16.5-8.5,24.4-13.4,4.8-3,9.3-6.7,13.2-10.9,1.7-1.8,3.3-3.8,3.5-6.3,4.4-1.1,8.2-2,11.4-3.9,3.3-1.9,6-4.9,7.2-8.5.9.4,1,4.9,1,4.9,11.9-11.8,19.7-27.7,21.8-44.3,15.3,11.5,29.5,23.6,45.5,32.8,16.1,9.2,34.2,15.4,52.7,15.5,12.6,0,25.6-3,35.2-11.1,7.2-6,12.1-14.4,14.8-23.3,2.3-7.7,3.1-15.9,1.2-23.8-1.2-5.1-3.5-9.9-6.4-14.2-8.3-12.2-21.8-20.6-36.4-22.7,11,6.8,21.3,14.8,27.5,25.7,6.2,10.9,7.7,25,1.5,35.9-6.5,11.6-20.4,17.6-33.7,17.7-13.3,0-26.1-4.9-38-10.9-23.6-11.9-45.7-29-57-52.9-2.6-5.6-4.6-11.4-6.8-17.2-5.9-15.9-13.2-31.3-21.2-46.3-15.4-28.9-37.8-53.2-65.6-67.7-31.8-16.6-69-20.7-104.7-17.5-12.9,1.2-26.2,3.2-38.4-1.2.9-2.3,2.2-3.3,3.5-4-4.2-.4-8.5-.4-12.7,0,1.2-1.8,2.8-3.4,4.7-4.5-6.6-1.5-13.4-2.1-20.1-1.8.7-1.6,1.6-3,2.7-4.4-4.9-1.1-9.9-1.4-14.9-.8.3-8,1.4-15.4,0-22.5-1.5-7.1-6-14.1-13-16.2-4.3-1.4-9-.8-13.3.5-7,2-13.4,5.8-18.7,10.8-4.7-2.7-8.9-4-13.2-4.7-.3-4.5-1.1-9.6-3.5-14.1-2.4-4.5-6.6-8.3-11.7-8.8-5.1-.5-10,2.5-13.1,6.5-3.1,4-4.9,8.9-6.5,13.7-14.2,2.4-27.9,5.3-40.4,11.3-13,6.2-24.3,15.5-35.5,24.7-5.3,4.3-10.5,8.7-15.8,13-1.5,1.2-3,2.5-3.8,4.2-1.4,3.1-.1,6.7,1.2,9.9,1.5,3.7,3.2,7.6,6.4,9.9,1.5,1.1,3.4,1.8,4.9,2.9,2.6,1.9,4,5,5.9,7.6,4.9,6.8,13.1,10.5,21.4,11.7,8.3,1.2,16.7.2,25-.7,5.5,1.1,10,3.4,14.6,5.2,4.6,1.8,9.5,3.3,15.1,2.8,18.9,10,33.1,28.6,37.9,49.5.5-1.2,1-2.3,1.5-3.5,1.3,7.4,4.2,14.5,8.5,20.7.2-2.9.4-5.7.6-8.6,1.6,5.9,4.2,11.5,7.7,16.5.2-1.1.4-2.3.6-3.4,10.7,11,12.8,27.7,12.2,43-.8,24-6.9,48.3-20.6,68.9h0Z"/>
          <path class="cls-15" d="M128.5,2088.4v-24.2h111.4v24.2h-41.2v69.4h-28.8v-69.4h-41.4ZM59.9,2136.7c13.9,0,21.9-.2,24.1-.7,2.2-.4,3.3-2.1,3.3-5.1s-1.5-5.8-4.6-6.8c-3-.9-10.6-1.3-22.8-1.3-24,0-39.1-1.7-45.4-5.2-6.3-3.5-9.4-12.1-9.4-25.9s4.1-20.9,12.3-24.5c6.3-2.7,20.2-4.1,41.9-4.1s31.5.5,36.6,1.6c12.1,2.4,18.2,12.7,18.2,30.9h-28.8c0-5-1.1-7.9-3.2-8.8-2.2-.8-9.8-1.2-22.6-1.2s-20.5.2-22.5.7c-2,.5-3,2.3-3,5.4s1.7,5.3,5.1,6.3c3.4,1,10.4,1.4,20.9,1.4,23.7,0,39.1,1.9,45.9,5.6,6.8,3.8,10.2,12.4,10.2,25.9s-3.8,20.5-11.5,24c-6.6,3-21.5,4.5-44.8,4.5s-29.5-.4-34.8-1.2c-8.2-1.2-13.8-4.1-16.7-8.6-3-4.5-4.5-12.2-4.5-23.3h28.8c0,5.2,1.1,8.3,3.4,9.2,2.3.9,10.3,1.3,23.9,1.3h0ZM-109.3,2157.7v-93.6H-8.4v22.6h-72v13H-11.7v22.5h-68.7v12.8H-8.4v22.6h-100.8ZM-198.4,2110.6h41.6c3.4,0,6-.7,7.7-2.2,2.1-1.8,3.2-4.8,3.2-8.9s-1-7.3-3.2-9c-1.7-1.4-4.2-2.1-7.7-2.1h-41.6v22.3h0ZM1091.1,2064.2h28.8v69.3h65.3v24.2h-94.1v-93.5ZM986.4,2111c0,12,1.4,18.9,4.2,20.8,2.7,2,12.3,3,28.8,3s26.3-1,29.1-3c2.7-1.9,4.1-8.8,4.1-20.8s-1.4-19.1-4.1-21.1c-2.7-1.9-12.3-2.9-28.9-2.9s-26.2,1-28.9,2.9c-2.8,2-4.2,9-4.2,21.1h0ZM1081.3,2111c0,22.8-2.7,36.4-8.2,40.8-5.9,4.8-23.8,7.2-53.7,7.2s-36.1-.8-43-2.4c-8.6-2-13.9-6.4-16.2-13.1-1.7-5.2-2.6-16-2.6-32.6s2.7-36.4,8.1-40.8c5.9-4.9,23.8-7.4,53.7-7.4s47.6,2.4,53.5,7.2c5.6,4.5,8.4,18.2,8.4,41h0ZM856.4,2088.4v19h46.2c3.2,0,5.4-.7,6.8-2.1,1.3-1.3,2-3.8,2-7.4s-.7-6.1-2.1-7.4c-1.4-1.4-3.6-2.1-6.7-2.1h-46.2ZM827.6,2064.1h83.8c10.3,0,17.6,1.9,21.9,5.6,4.6,4.1,6.9,11.3,6.9,21.6s-1,13.9-2.9,17.8c-2,3.9-5.3,6.8-10.1,8.7,5.2,2.3,8.7,4.6,10.5,6.9,1.7,2.4,2.5,6.4,2.5,12v20.9h-28.8v-16.8c0-2.4-.7-4.5-2.1-6.3-1.6-2.1-4.1-3.1-7.3-3.1h-45.6v26.2h-28.8v-93.6h0ZM704.9,2088.4v-24.2h111.4v24.2h-41.2v69.4h-28.8v-69.4h-41.4,0ZM455,2111c0,12,1.4,18.9,4.2,20.8,2.7,2,12.3,3,28.8,3s26.3-1,29.1-3c2.7-1.9,4.1-8.8,4.1-20.8s-1.4-19.1-4.1-21.1c-2.7-1.9-12.3-2.9-28.9-2.9s-26.2,1-28.9,2.9c-2.8,2-4.2,9-4.2,21.1h0ZM549.9,2111c0,22.8-2.7,36.4-8.2,40.8-5.9,4.8-23.8,7.2-53.7,7.2s-36.1-.8-43-2.4c-8.6-2-13.9-6.4-16.2-13.1-1.7-5.2-2.6-16-2.6-32.6s2.7-36.4,8.1-40.8c5.9-4.9,23.8-7.4,53.7-7.4s47.6,2.4,53.5,7.2c5.6,4.5,8.4,18.2,8.4,41h0ZM660.7,2135.9v-71.5h28.8v93.4h-47.1l-49.3-69.2c-.3-.7-.7-1.5-1-2.2v71.5h-28.8v-93.4h47.1l49.2,69.1c.4.8.8,1.6,1.2,2.4h0ZM358.6,2062.8c26.7,0,43.2,2.2,49.3,6.7,5.4,3.9,8.1,14.1,8.1,30.7h-28.9c0-5.4-1.4-8.9-4.3-10.4-3.6-1.8-11.6-2.7-24.2-2.7s-22.3,1.1-24.7,3.3c-2.4,2.2-3.7,9.1-3.7,20.7s1.2,18.3,3.7,20.6c2.5,2.2,10.7,3.2,24.7,3.2s20.7-.8,24-2.4c3.1-1.5,4.7-5,4.7-10.7h28.8c0,16.6-2.6,26.9-7.8,30.6-6.2,4.4-22.7,6.7-49.6,6.7s-43.1-2.4-48.7-7.3c-5.7-4.9-8.5-18.5-8.5-40.8s2.7-35.8,8.1-40.4c5.9-5.1,22.2-7.6,49.1-7.6h0ZM-227.2,2064.1h70.4c15.3,0,25.5,1.9,30.4,5.6,6.1,4.6,9.2,14.6,9.2,29.7s-3,25-9,29.6c-5,3.8-15.2,5.8-30.5,5.8h-41.6v22.9h-28.8v-93.6h0Z"/>
          <g class="cls-19">
            <rect class="cls-10" x="101.6" y="2192" width="754.8" height="65.2"/>
          </g>
          <g class="cls-17">
            <text class="cls-16" transform="translate(-242.9 2407.4)"><tspan x="0" y="0">RAT AND MICE</tspan></text>
          </g>
          <path class="cls-4" d="M-3981.4,2618.7c-6,104.2-23.6,198.4-53,282.2l-9.2,24.8c-17.8,45.9-39.4,88.5-64.7,127.8l-25.8,37.1c-58.2,77.9-133,141.2-224.8,189.6-91.9-48.4-166.7-111.8-224.8-189.6l-25.7-37.1c-25.3-39.3-46.9-81.9-64.7-127.8l-9.2-24.8c-29.4-83.8-47-177.9-53-282.2l200-92.7,19.7-9.1,157.8-73.1,157.7,73.1,19.7,9.1,200,92.7Z"/>
          <path class="cls-13" d="M-3255.4,2262.4l-2.6,3.2-1.7-25.9c-.2-2.6.3-5.2,1.4-7.6-1.6,0-3.1-.1-4.7-.2-1.9,0-3.6-.2-5.3-.2s-2.9,0-4.1.3c-2.4.4-4.7,1.2-6.8,2.4l-17.6,10.5.8-8.5-10.3,4.3,1.6-17.2c.2-2.1.6-4.2,1.2-6.5l-5.3-4c2.4-5.3,6.9-15.1,17.3-18.2,1.6-.5,3-.7,4.1-.9.4,0,.9-.1,1.2-.2.2-.1.5-.3.8-.5.7-.5,1.6-1.1,2.7-1.7,3.2-1.7,7-2.6,11-2.6s6,.4,9.5,1.4c1.2.3,2.4.7,3.6,1,2.5.8,5,1.5,6.8,1.5h.2c4.1,0,8.7-3.1,13.9-6.7.1,0,.2-.2.4-.3-5.2-2.8-10.4-5.8-15.4-9l4.3,15.4-27.7-27.3c-1.1-1.1-2.3-2.2-3.4-3.3-2.7,4.2-4.7,8.8-5.9,13.6l-3.8,15.9-7.3-5.9c-1.5,1.8-3,3.4-4.5,5-2.1,2.3-4.2,4.4-5.8,6.6-1.5,2-2.9,4.3-4.4,6.8-2.5,4.1-5.3,8.7-9.2,12.7-6.8,7.1-15.6,11.1-22.1,14-4,1.8-9.4,4.2-15.6,4.8-1,0-2,.1-3.1.1-4.1,0-7.9-.7-11.2-1.4-1-.2-2.1-.4-3.1-.6-1.6-.3-3-.4-4.2-.4s-2.6.2-3.3.6l-21.9,13,3.9-14.7-16.6,6.2,4.2-10.9-12.6,4.9,16.3-26.4c3.3-5.3,8.9-9.1,15.8-10.7,3.8-.9,7.5-1,9.9-1s2.9,0,4.2,0c3.6.1,7.6.2,11.7,1,1.8.3,3.4.7,4.9,1.1,2.2.6,4.3,1.1,5.8,1.1s.5,0,.7,0c2.7-.4,6.1-4,8.4-6.7,1.4-1.6,2.9-3.4,3.6-5.1,1-2.2,1.4-5.4,1.7-8.8.2-1.5.3-3.1.6-4.8.8-5.1,2.1-9.9,3.4-14.4,1.4-4.9,2.7-9.6,3.1-14.1.3-3.1,0-5.6-.9-6.7-1-1.5-4.2-3-5.7-3.7-5.1-2.4-10.3-4.6-15.8-6.4-4.3,10.7-10.9,20.5-19.2,28.3-1.7,1.6-3.4,3-5,4.5-2,1.7-3.9,3.4-5.6,5.1-6,6.1-10.2,14.3-14.7,22.9-2.2,4.2-4.4,8.5-6.9,12.7-2.5,4.3-5.8,9.1-10.8,12.7-5.5,3.9-12.5,5.9-20.8,5.9s-.7,0-1,0c-3.5,0-6.7-.4-9.8-.8-2.4-.3-4.6-.5-6.8-.6-.8,0-1.5,0-2.3,0-4.5,0-9,.6-13.3,1.8l-20.2,5.7,3.4-8.5-8.6,2.8,8.1-20.5c1.5-3.8,4.2-7.1,7.5-9.3l-1.3-5c3.9-2.1,8.2-3.3,12.7-3.6,3-2.3,6.9-3.6,11.1-3.6s3,.2,4.4.5c2.7.6,5.1,1.5,7,2.3.6.2,1.2.5,1.8.7,1.4.5,2.9.9,4.3,1.2,11.6-19.5,18.2-43.5,19-69.7.3-9.5-.3-17.6-2-24.4l-3.7-5.2-.4,4.8-16.7-24.2c-.5-.8-1.1-1.6-1.6-2.4l-4.4,10.5-7.2-31.7c-4.7-20.6-18.2-38.8-36.4-49.3h0c-7.7,0-14.2-2.2-18.9-4.1-1.4-.5-2.7-1.1-3.9-1.6-3.3-1.4-6.4-2.7-9.7-3.5-5.9.7-12.4,1.4-18.9,1.4s-7.6-.3-11.2-.8c-13.6-2-24.9-8.3-31.8-17.8-.8-1.1-1.5-2.2-2.1-3.2-.9-1.4-1.9-3-2.5-3.4-.3-.2-1-.6-1.6-.9-1.1-.6-2.4-1.3-3.8-2.3-6.4-4.5-9.2-11.5-11.1-16.1-1.5-3.8-4.8-11.7-1.2-19.7,1.9-4.2,5.1-6.9,7.2-8.6l18.4-15.2c13.3-11,27-22.3,43.4-30.1,14.2-6.8,29.3-10.4,43.7-13,1.7-4.4,3.9-9,7.2-13.2,5.7-7.3,14-11.6,22.2-11.6s1.4,0,2.2,0c8.9.8,17.1,6.7,21.8,15.7,2,3.8,3.4,7.9,4.3,12.7,1.5.5,3,1,4.5,1.6,6.1-4.6,13-8.1,20.4-10.2,4.4-1.3,8.4-1.9,12.2-1.9s6.4.5,9.3,1.4c11,3.5,19.4,13.7,22.1,26.7,1.2,6,1.2,12,.9,17.7,2.9.2,5.8.7,8.6,1.3l16.6,3.7-2,2.4c1.9.3,3.8.7,5.6,1.1l26.6,5.9-1.5.8,15.9,1.6-7.3,4c2.5-.2,5.1-.5,7.8-.7,1.7-.2,3.4-.3,5.1-.5,9-.8,18-1.2,26.7-1.2,38.1,0,72,7.6,100.7,22.7,33,17.3,60.9,46,80.6,83,10.5,19.7,18.8,37.8,25.3,55.2.5,1.3,1,2.6,1.4,3.9,2,5.4,3.8,10.4,6.1,15.3,10.6,22.3,31.3,41.4,61.6,56.6,10.7,5.4,24.7,11.5,39.2,11.5h.3c13.2,0,25.1-6.1,30.3-15.3,4.9-8.7,4.2-21.1-1.7-31.6-5.3-9.2-14-17.3-28.4-26.2l6.9-19.1c19.8,2.8,38.3,14.3,49.5,30.8,4.3,6.4,7.4,13.1,9,19.9,2.4,10.2,1.9,21.6-1.6,33-4,13.1-11.1,24.2-20.5,32.1-15.1,12.6-34,15.2-47.3,15.2h-.4c-21.7,0-44-6.6-66.3-19.4-14.7-8.4-28.2-18.9-41.2-29-4.8,15.3-13.2,29.4-24.6,40.7l-17.5,17.5v-8.9c-1.6.6-3.1,1-4.7,1.5-1.3,2.3-2.9,4.2-4.4,5.7-5.2,5.5-11,10.3-17.4,14.3-4.6,2.9-9.4,5.3-14,7.6-5,2.5-9.8,4.9-14,7.8-2.3,1.6-4.6,3.4-7,5.2-5.5,4.3-11.7,9.2-19.4,12-7.4,2.7-15.1,3.2-21.9,3.6-7.2.4-13.5.8-18.2,3.5l-17.1,9.8v-1.6c.1,0-6,6.8-6,6.8v-10.9c.1,0,.1,0,.1,0ZM-3193.5,2210.1c-2.2.5-4.3.9-6.4,1.3-.2,0-.5,0-.7.1,1.8,0,3.2-.2,4.5-.5.9-.2,1.8-.6,2.7-1Z"/>
        </g>
        <g id="Layer_2">
          <g>
            <path class="cls-9" d="M691,164l-19.7-9.1-157.7-73.1-157.8,73.1-19.7,9.1-200,92.7c6,104.2,23.6,198.4,53,282.2l9.2,24.8c17.8,45.9,39.4,88.5,64.7,127.8l25.7,37.1c58.2,77.9,133,141.2,224.8,189.6,91.8-48.4,166.7-111.8,224.8-189.7l25.8-37.1c25.3-39.3,46.8-81.9,64.7-127.8l9.2-24.8c29.4-83.8,47-177.9,53-282.2l-200-92.7h0ZM513.6,870.4c-82.8-47-147.5-106.3-197.1-175.1l-24.4-36.5c-21.8-35.3-40.2-72.8-55.3-112.2l-12.4-34.8c-23.7-71.6-37.8-148.6-44.2-229.2l113.2-52.4,382.2,509.5c-43.9,50.1-97.4,94.1-161.8,130.7ZM802.9,511.8l-12.5,34.8c-15.2,39.3-33.5,76.8-55.3,112.2l-15.2,22.7L334.6,211l15.2-7.1,26.4-12.2,137.3-63.6,137.3,63.6,26.4,12.2,169.8,78.7c-6.5,80.7-20.5,157.7-44.2,229.2h0Z"/>
            <path d="M385.9,620.4c-4.6,0-9.1-.7-13.4-2.3-2.4-.9-4.7-2.1-7.3-2.6-2.5-.5-5.4-.3-7.3,1.4-.7.6-1.3,1.3-2.1,1.7-.8.3-1.6.3-2.4.3-3.2,0-6.4.8-9.3,2.3,2.5,0,4.9,1,6.6,2.8-3.5.4-6.8,2.9-8.1,6.2,3-1,6.3-1.2,9.4-.6-1.9,2.1-3.4,4.6-4.5,7.3,6.1-1.7,12.5-2.5,18.9-2.2,5.5.3,10.9,1.3,16.3,1.4,5.5.1,11.2-.8,15.6-4,3.4-2.4,5.8-6,7.9-9.5,7.6-12.7,12.8-27.1,23.1-37.6,3.4-3.5,7.3-6.5,10.9-9.8,9.5-9,16.4-20.8,19.6-33.6,9.7,2.6,18.6,5.8,27,9.9,3.6,1.7,7.3,3.7,9.6,7,2.8,3.9,3.2,8.9,2.8,13.7-.9,9.9-5.1,19.3-6.6,29.1-.8,5.5-.8,11.3-3.2,16.4-1.3,2.7-3.2,5.1-5.1,7.4-4,4.7-8.8,9.4-14.9,10.2-4.9.7-9.8-1.3-14.7-2.2-3.3-.6-6.8-.7-10.2-.8-3.8-.1-7.7-.2-11.4.7-3.7.9-7.3,2.9-9.3,6.1,3.1-1.2,6.7-1.2,10-.3-4,1.9-7.2,5.3-8.8,9.4,4.4-1.6,9.2-2.2,13.9-1.6-1.2,1.8-2,3.8-2.6,5.9,4.3-2.5,9.6-2.3,14.4-1.5,4.9.8,9.8,2.2,14.7,1.7,4.3-.4,8.3-2.2,12.3-4,6.8-3.1,13.7-6.3,18.9-11.7,5.2-5.4,8.2-12.6,12.7-18.6,5.6-7.4,13.5-13.2,17-21.8.6,1.2,1.3,3,2.7,4.1,2.4-9.8,7.6-18.9,14.8-25.9,4.2,3.5,8.1,7,11.8,10.7-.5-1.8-1-3.6-1.5-5.3,17.6,13.3,36.7,24.7,56.8,33.9-14.1,1.5-24.2,17.3-38.4,17-4.4,0-8.6-1.8-12.9-2.9-4.3-1.1-9-1.7-12.9.4-1.5.8-2.8,2-4.4,2.6-2,.8-4.2.8-6.3,1.4-5.5,1.6-8.5,7.4-10.9,12.6,2.2-2,5-3.2,7.9-3.5-1.2,2.9-2.5,6.7-2.9,10.6,2.6-1.1,4.6-3.3,6.8-5.1,2.2-1.8,5-3.4,7.8-2.9-2.6,2.2-4.4,5.5-4.7,8.9,3.2-1.9,6.9-3.2,10.6-3.8,6.5-1,13.1.3,19.7,0,6.5-.3,12.9-2.3,18.6-5.6,4.3-2.5,8.1-5.9,12.5-8.3,8.5-4.7,18.4-5.8,27.9-7.9,5-1.1,10.8-3.6,11.6-8.7,7.6,4.1,15.6,6.5,23.7,6.8-12.9,6.1-20.7,19.8-33.6,23.1-6,1.5-12.3.5-18.5,0-6.2-.5-12.8-.4-18,2.9-1.7,1.1-3.1,2.4-4.8,3.4-2.8,1.7-6.1,2.4-9,4-2.9,1.5-5.6,4.3-5.4,7.6,1.9-2.3,5.1-3.5,8-3-2,2.7-3.4,6.4-3.5,10.1,3.4-3.7,7.9-6.5,12.7-7.8-3.1,2.8-5.1,6.9-5.5,11.1,12.3-7.1,28.3-2.9,41.6-7.8,9.1-3.4,16.2-10.7,24.2-16.1,8.9-6,19.2-9.8,28.4-15.6,5.6-3.5,10.8-7.8,15.4-12.6,1.9-2.1,3.9-4.5,4-7.3,5.1-1.3,9.5-2.3,13.3-4.5s7-5.6,8.4-9.8c1.1.5,1.1,5.7,1.1,5.7,13.8-13.7,22.9-32.2,25.4-51.5,17.8,13.4,34.3,27.4,53,38.1,18.7,10.7,39.7,18,61.2,18,14.6,0,29.7-3.5,41-12.8,8.3-6.9,14-16.7,17.2-27.1,2.7-8.9,3.6-18.5,1.4-27.6-1.4-5.9-4.1-11.5-7.5-16.5-9.6-14.2-25.4-24-42.3-26.3,12.8,7.9,24.8,17.2,32,29.9,7.2,12.7,8.9,29.1,1.8,41.8-7.6,13.5-23.7,20.5-39.2,20.6-15.5,0-30.4-5.7-44.2-12.6-27.4-13.8-53.1-33.7-66.3-61.5-3.1-6.5-5.4-13.3-7.9-20-6.9-18.5-15.4-36.4-24.7-53.9-17.9-33.6-43.9-61.8-76.3-78.7-36.9-19.3-80.2-24.1-121.7-20.3-15,1.3-30.5,3.7-44.7-1.4,1.1-2.7,2.5-3.8,4.1-4.7-4.9-.5-9.9-.5-14.8,0,1.4-2.1,3.3-3.9,5.5-5.2-7.7-1.7-15.6-2.4-23.4-2.1.8-1.8,1.9-3.5,3.2-5.1-5.7-1.3-11.5-1.6-17.3-.9.4-9.3,1.6-17.9,0-26.1-1.7-8.3-7-16.3-15.1-18.9-5-1.6-10.4-.9-15.5.6-8.1,2.4-15.6,6.7-21.7,12.6-5.4-3.1-10.3-4.7-15.4-5.4-.4-5.2-1.3-11.2-4-16.4-2.8-5.2-7.7-9.7-13.6-10.2-5.9-.5-11.6,2.9-15.2,7.6-3.7,4.7-5.7,10.4-7.6,16-16.5,2.7-32.4,6.2-46.9,13.1-15.2,7.3-28.3,18.1-41.3,28.8-6.1,5.1-12.3,10.1-18.4,15.2-1.7,1.4-3.5,2.9-4.4,4.9-1.6,3.6-.1,7.8,1.3,11.5,1.8,4.3,3.7,8.9,7.5,11.6,1.8,1.3,3.9,2,5.7,3.4,3,2.3,4.7,5.8,6.9,8.9,5.7,7.9,15.3,12.2,24.9,13.6,9.6,1.4,19.4.3,29.1-.9,6.4,1.3,11.6,3.9,16.9,6.1,5.3,2.1,11.1,3.8,17.6,3.2,22,11.7,38.5,33.2,44.1,57.5.6-1.4,1.1-2.7,1.7-4.1,1.5,8.6,4.9,16.9,9.9,24.1.2-3.3.5-6.7.7-10,1.8,6.9,4.9,13.4,9,19.1.2-1.3.4-2.6.6-4,12.4,12.8,14.8,32.2,14.2,50-.9,27.9-8,56.2-24,80.1h0Z"/>
            <g class="cls-14">
              <path class="cls-8" d="M691,164l-19.7-9.1-157.7-73.1-157.8,73.1-19.7,9.1-200,92.7c6,104.2,23.6,198.4,53,282.2l9.2,24.8c17.8,45.9,39.4,88.5,64.7,127.8l25.7,37.1c58.2,77.9,133,141.2,224.8,189.6,91.8-48.4,166.7-111.8,224.8-189.7l25.8-37.1c25.3-39.3,46.8-81.9,64.7-127.8l9.2-24.8c29.4-83.8,47-177.9,53-282.2l-200-92.7h0ZM513.6,870.4c-82.8-47-147.5-106.3-197.1-175.1l-24.4-36.5c-21.8-35.3-40.2-72.8-55.3-112.2l-12.4-34.8c-23.7-71.6-37.8-148.6-44.2-229.2l113.2-52.4,382.2,509.5c-43.9,50.1-97.4,94.1-161.8,130.7ZM802.9,511.8l-12.5,34.8c-15.2,39.3-33.5,76.8-55.3,112.2l-15.2,22.7L334.6,211l15.2-7.1,26.4-12.2,137.3-63.6,137.3,63.6,26.4,12.2,169.8,78.7c-6.5,80.7-20.5,157.7-44.2,229.2h0Z"/>
            </g>
          </g>
        </g>
      </g>
    </g>
  </g>
</svg>